<svg xmlns="http://www.w3.org/2000/svg" style="display:none;" >
  <defs>
  <symbol id="icon_AdditionMen"  viewBox="0 0 24 24">
    <path id="ic_approve-copy-" d="M20.000,14.017 L17.015,14.017 L17.015,17.000 L16.000,17.000 L16.000,14.017 L12.999,14.017 L13.000,13.000 L16.000,13.000 L16.000,10.000 L17.015,9.986 L17.015,13.000 L20.000,13.000 L20.000,14.017 zM4.000,9.983 L13.992,9.983 L14.000,11.000 L4.000,11.000 L4.000,9.983 zM4.000,8.011 L4.000,7.000 L14.000,7.000 L13.992,8.011 L4.000,8.011 zM11.000,13.000 L11.004,14.017 L4.000,14.017 L4.000,13.000 L11.000,13.000 z"  />
  </symbol>
  <symbol id="icon_ArrowLeftUp"  viewBox="0 0 24 24">
    <path id="ic_arrow_back-co" d="M17.410,16.703 L16.703,17.410 L8.000,8.707 L8.000,16.000 L7.000,16.000 L7.000,6.999 L16.000,7.000 L16.000,8.000 L8.707,8.000 L17.410,16.703 z"  />
  </symbol>
  <symbol id="icon_Attachment"  viewBox="0 0 24 24">
    <path id="Shape-7" d="M7.000,21.000 C7.000,21.000 7.000,17.000 7.000,17.000 C7.503,17.000 7.390,17.000 8.000,17.000 C8.000,17.000 8.000,20.000 8.000,20.000 L19.000,20.000 L19.000,10.000 L15.000,10.000 L15.000,6.000 L12.000,6.000 L12.000,5.000 L16.000,5.000 L20.000,9.000 L20.000,21.000 L7.000,21.000 zM16.000,6.000 L16.000,9.000 L19.000,9.000 L16.000,6.000 zM17.000,18.000 L10.000,18.000 L10.000,17.000 L17.000,17.000 L17.000,18.000 zM17.000,16.000 L11.000,16.000 L12.000,15.000 L17.000,15.000 L17.000,16.000 zM12.000,11.000 L17.000,11.000 L17.000,12.000 L12.000,12.000 L12.000,11.000 zM17.000,14.000 L12.000,14.000 L12.000,13.000 L17.000,13.000 L17.000,14.000 zM4.000,12.000 C4.000,12.000 4.000,6.000 4.000,6.000 C4.000,1.986 9.000,1.961 9.000,6.000 C9.000,6.000 9.000,11.000 9.000,11.000 C9.000,13.608 6.000,13.562 6.000,11.000 C6.000,11.000 6.009,5.984 6.009,5.984 L7.000,6.000 C7.000,6.000 7.000,11.000 7.000,11.000 C7.000,12.247 8.000,12.336 8.000,11.000 C8.000,11.000 8.000,6.000 8.000,6.000 C8.000,3.233 5.000,3.378 5.000,6.000 C5.000,6.000 5.000,12.000 5.000,12.000 C5.000,15.974 10.000,15.927 10.000,12.000 C10.000,12.000 10.000,5.000 10.000,5.000 L10.995,4.997 C10.995,4.997 11.000,12.000 11.000,12.000 C11.000,17.168 4.000,17.421 4.000,12.000 z"  />
  </symbol>
  <symbol id="icon_Auction"  viewBox="0 0 24 24">
    <path id="Rectangle-6" d="M11.086,3.722 L11.793,3.015 L15.328,6.550 L14.621,7.257 L11.086,3.722 zM11.439,10.439 L11.793,10.086 L20.450,18.743 L19.743,19.450 L11.086,10.793 L8.964,12.914 L5.429,9.379 L10.379,4.429 L13.914,7.964 L11.439,10.439 zM6.843,9.379 L8.964,11.500 L12.500,7.964 L10.379,5.843 L6.843,9.379 zM7.550,14.328 L4.015,10.793 L4.722,10.086 L8.257,13.621 L7.550,14.328 zM10.000,18.000 L10.000,19.000 L5.000,19.000 L5.000,18.000 L10.000,18.000 zM12.000,21.000 L3.000,21.000 L3.000,20.000 L12.000,20.000 L12.000,21.000 z"  />
  </symbol>
  <symbol id="icon_Back"  viewBox="0 0 24 24">
    <path id="ic_arrow_back" d="M20.000,12.000 L5.414,12.000 L10.990,17.576 L10.283,18.283 L4.207,12.207 L4.207,12.207 L3.500,11.500 L10.269,4.731 L10.976,5.438 L5.414,11.000 L20.000,11.000 L20.000,12.000 zM4.914,11.500 L5.000,11.586 L5.000,11.414 L4.914,11.500 z"  />
  </symbol>
  <symbol id="icon_Bookmark"  viewBox="0 0 24 24">
    <path id="ic_bookmark-copy" d="M16.000,5.000 L16.000,18.000 L12.000,15.000 L8.000,18.000 L8.000,5.000 L16.000,5.000 M17.000,4.000 L7.000,4.000 L7.000,20.000 L12.000,16.000 L17.000,20.000 L17.000,4.000 L17.000,4.000 z"  />
  </symbol>
  <symbol id="icon_BookmarkAdd"  viewBox="0 0 24 24">
    <path id="ic_bookmark-copy" d="M13.000,5.627 C13.000,5.627 13.000,5.000 13.000,5.000 L5.000,5.000 L5.000,18.000 L9.000,15.000 L13.000,18.000 C13.000,18.000 13.000,15.373 13.000,15.373 C13.317,15.536 13.650,15.667 14.000,15.767 C14.000,15.767 14.000,20.000 14.000,20.000 L9.000,16.000 L4.000,20.000 L4.000,4.000 L14.000,4.000 L14.000,4.000 C14.000,4.000 14.000,5.233 14.000,5.233 C13.650,5.333 13.317,5.464 13.000,5.627 z"  />
    <path id="Ellipse-8" d="M15.500,16.000 C12.462,16.000 10.000,13.538 10.000,10.500 C10.000,7.462 12.462,5.000 15.500,5.000 C18.538,5.000 21.000,7.462 21.000,10.500 C21.000,13.538 18.538,16.000 15.500,16.000 zM15.500,6.000 C13.015,6.000 11.000,8.015 11.000,10.500 C11.000,12.985 13.015,15.000 15.500,15.000 C17.985,15.000 20.000,12.985 20.000,10.500 C20.000,8.015 17.985,6.000 15.500,6.000 zM16.000,13.000 L15.000,13.000 L15.000,11.000 L13.000,11.000 L13.000,10.000 L15.000,10.000 L15.000,8.000 L16.000,8.000 L16.000,10.000 L18.000,10.000 L18.000,11.000 L16.000,11.000 L16.000,13.000 z"  />
  </symbol>
  <symbol id="icon_BookmarkRem"  viewBox="0 0 24 24">
    <path id="ic_bookmark-copy" d="M13.000,5.627 C13.000,5.627 13.000,5.000 13.000,5.000 L5.000,5.000 L5.000,18.000 L9.000,15.000 L13.000,18.000 C13.000,18.000 13.000,15.373 13.000,15.373 C13.317,15.536 13.650,15.667 14.000,15.767 C14.000,15.767 14.000,20.000 14.000,20.000 L9.000,16.000 L4.000,20.000 L4.000,4.000 L14.000,4.000 L14.000,4.000 C14.000,4.000 14.000,5.233 14.000,5.233 C13.650,5.333 13.317,5.464 13.000,5.627 z"  />
    <path id="Ellipse-8" d="M15.500,16.000 C12.462,16.000 10.000,13.538 10.000,10.500 C10.000,7.462 12.462,5.000 15.500,5.000 C18.538,5.000 21.000,7.462 21.000,10.500 C21.000,13.538 18.538,16.000 15.500,16.000 zM15.500,6.000 C13.015,6.000 11.000,8.015 11.000,10.500 C11.000,12.985 13.015,15.000 15.500,15.000 C17.985,15.000 20.000,12.985 20.000,10.500 C20.000,8.015 17.985,6.000 15.500,6.000 zM13.000,10.000 L18.000,10.000 L18.000,11.000 L13.000,11.000 L13.000,10.000 z"  />
  </symbol>
  <symbol id="icon_Calendar"  viewBox="0 0 24 24">
    <path id="Shape-1" d="M4.000,20.000 L4.000,6.000 L5.000,6.000 C5.000,6.000 6.000,6.000 6.000,6.000 C6.000,6.055 6.001,8.000 8.000,8.000 C9.997,8.000 10.000,6.000 10.000,6.000 L14.000,6.000 C14.000,6.000 14.001,8.000 16.000,8.000 C17.991,8.000 18.000,6.000 18.000,6.000 L19.000,6.000 L20.000,6.000 L20.000,20.000 L4.000,20.000 zM8.000,16.000 L10.000,16.000 L10.000,14.000 L8.000,14.000 L8.000,16.000 zM8.000,17.000 L8.000,19.000 L10.000,19.000 L10.000,17.000 L8.000,17.000 zM11.000,16.000 L13.000,16.000 L13.000,14.000 L11.000,14.000 L11.000,16.000 zM11.000,17.000 L11.000,19.000 L13.000,19.000 L13.000,17.000 L11.000,17.000 zM14.000,16.000 L16.000,16.000 L16.000,14.000 L14.000,14.000 L14.000,16.000 zM14.000,17.000 L14.000,19.000 L16.000,19.000 L16.000,17.000 L14.000,17.000 zM17.000,16.000 L19.000,16.000 L19.000,14.000 L17.000,14.000 L17.000,16.000 zM17.000,17.000 L17.000,19.000 L19.000,19.000 L19.000,17.000 L17.000,17.000 zM5.000,11.000 L5.000,19.000 L7.000,19.000 L7.000,17.000 L5.000,17.000 L5.000,16.000 L7.000,16.000 L7.000,14.000 L5.000,14.000 L5.000,13.000 L7.000,13.000 L7.000,11.000 L5.000,11.000 zM8.000,11.000 L8.000,13.000 L10.000,13.000 L10.000,11.000 L8.000,11.000 zM11.000,11.000 L11.000,13.000 L13.000,13.000 L13.000,11.000 L11.000,11.000 zM14.000,11.000 L14.000,13.000 L16.000,13.000 L16.000,11.000 L14.000,11.000 zM17.000,11.000 L17.000,13.000 L19.000,13.000 L19.000,11.000 L17.000,11.000 zM15.988,7.008 C15.437,7.008 14.989,6.710 14.989,6.343 C14.989,6.343 14.989,4.668 14.989,4.668 C14.989,4.301 15.437,4.003 15.988,4.003 C16.540,4.003 16.987,4.301 16.987,4.668 C16.987,4.668 16.987,6.343 16.987,6.343 C16.987,6.710 16.540,7.008 15.988,7.008 zM8.000,7.000 C7.586,7.000 7.000,6.620 7.000,6.252 C7.000,6.252 7.003,4.665 7.003,4.665 C7.003,4.298 7.450,4.000 8.002,4.000 C8.553,4.000 9.000,4.298 9.000,4.665 C9.000,4.665 9.000,6.252 9.000,6.252 C9.000,6.620 8.414,7.000 8.000,7.000 z"  />
  </symbol>
  <symbol id="icon_Cart"  viewBox="0 0 24 24">
    <path id="Shape-2" d="M18.500,5.000 C18.500,5.000 17.000,5.000 17.000,5.000 C17.000,5.000 17.000,11.000 17.000,11.000 C17.000,13.011 16.105,16.000 15.000,16.000 C15.000,16.000 8.000,16.000 8.000,16.000 C6.895,16.000 6.000,13.011 6.000,11.000 C6.000,11.000 6.000,8.000 6.000,8.000 L14.000,8.000 L14.000,9.000 L7.000,9.000 C7.000,9.000 7.000,10.000 7.000,10.000 C7.000,11.417 7.489,15.000 9.000,15.000 C9.000,15.000 14.000,15.000 14.000,15.000 C15.542,15.000 16.000,11.480 16.000,10.000 C16.000,10.000 16.000,5.014 16.000,5.014 C16.000,5.014 16.000,5.000 16.000,5.000 C16.000,4.972 16.000,4.867 16.000,4.500 C16.000,4.224 16.224,4.000 16.500,4.000 C16.500,4.000 18.500,4.000 18.500,4.000 C18.776,4.000 19.000,4.224 19.000,4.500 C19.000,4.776 18.776,5.000 18.500,5.000 zM8.508,17.013 C9.335,17.013 10.005,17.678 10.005,18.499 C10.005,19.320 9.335,19.985 8.508,19.985 C7.682,19.985 7.012,19.320 7.012,18.499 C7.012,17.678 7.682,17.013 8.508,17.013 zM8.503,18.995 C8.778,18.995 9.002,18.773 9.002,18.500 C9.002,18.226 8.778,18.004 8.503,18.004 C8.227,18.004 8.004,18.226 8.004,18.500 C8.004,18.773 8.227,18.995 8.503,18.995 zM14.484,17.013 C15.311,17.013 15.981,17.678 15.981,18.499 C15.981,19.320 15.311,19.985 14.484,19.985 C13.658,19.985 12.988,19.320 12.988,18.499 C12.988,17.678 13.658,17.013 14.484,17.013 zM14.500,18.995 C14.778,18.995 15.004,18.773 15.004,18.500 C15.004,18.226 14.778,18.004 14.500,18.004 C14.222,18.004 13.996,18.226 13.996,18.500 C13.996,18.773 14.222,18.995 14.500,18.995 z"  />
  </symbol>
  <symbol id="icon_CartMove"  viewBox="0 0 24 24">
    <path id="Shape-2-copy" d="M13.414,12.000 L16.140,14.726 L15.433,15.433 L12.207,12.207 L12.207,12.207 L11.500,11.500 L12.207,10.793 L12.207,10.793 L15.376,7.624 L16.083,8.331 L13.414,11.000 L20.000,11.000 L20.000,12.000 L13.414,12.000 zM19.500,5.000 C19.500,5.000 18.000,5.000 18.000,5.000 L18.000,9.000 L17.000,9.000 L17.000,8.000 L17.000,5.014 C17.000,5.014 17.000,5.000 17.000,5.000 C17.000,4.972 17.000,4.867 17.000,4.500 C17.000,4.224 17.224,4.000 17.500,4.000 C17.500,4.000 19.500,4.000 19.500,4.000 C19.776,4.000 20.000,4.224 20.000,4.500 C20.000,4.776 19.776,5.000 19.500,5.000 zM7.000,9.000 C7.000,9.000 7.000,11.000 7.000,11.000 C7.000,12.417 7.489,15.000 9.000,15.000 C9.000,15.000 12.000,15.000 12.000,15.000 L13.000,16.000 C13.000,16.000 8.000,16.000 8.000,16.000 C6.895,16.000 6.000,13.011 6.000,11.000 C6.000,11.000 6.000,8.000 6.000,8.000 L11.462,8.000 L10.615,9.000 L7.000,9.000 zM8.508,17.013 C9.335,17.013 10.005,17.678 10.005,18.499 C10.005,19.320 9.335,19.985 8.508,19.985 C7.682,19.985 7.012,19.320 7.012,18.499 C7.012,17.678 7.682,17.013 8.508,17.013 zM8.503,18.995 C8.778,18.995 9.002,18.773 9.002,18.500 C9.002,18.226 8.778,18.004 8.503,18.004 C8.227,18.004 8.004,18.226 8.004,18.500 C8.004,18.773 8.227,18.995 8.503,18.995 zM15.484,17.013 C16.311,17.013 16.981,17.678 16.981,18.499 C16.981,19.320 16.311,19.985 15.484,19.985 C14.658,19.985 13.988,19.320 13.988,18.499 C13.988,17.678 14.658,17.013 15.484,17.013 zM15.500,18.995 C15.778,18.995 16.004,18.773 16.004,18.500 C16.004,18.226 15.778,18.004 15.500,18.004 C15.222,18.004 14.996,18.226 14.996,18.500 C14.996,18.773 15.222,18.995 15.500,18.995 z"  />
  </symbol>
  <symbol id="icon_CartQuick"  viewBox="0 0 24 24">
    <path id="Shape-2" d="M15.000,11.000 L22.000,11.000 L15.000,12.000 L15.000,11.000 zM14.000,8.000 L21.000,8.000 L14.000,9.000 L14.000,8.000 zM13.000,16.000 C13.000,16.000 6.000,16.000 6.000,16.000 C4.017,16.000 2.000,8.000 2.000,8.000 L9.000,8.000 L9.529,9.000 C9.529,9.000 3.810,9.000 3.529,9.000 C4.186,11.219 5.021,15.031 7.000,15.000 C7.000,15.000 12.000,15.000 12.000,15.000 C13.874,15.000 13.100,13.750 9.631,5.000 C9.454,4.527 9.666,5.155 9.519,4.500 C9.456,4.224 9.630,4.000 9.906,4.000 C9.906,4.000 12.906,4.000 12.906,4.000 C13.182,4.000 13.457,4.224 13.519,4.500 C13.581,4.776 13.276,5.000 13.000,5.000 C13.000,5.000 10.631,5.000 10.631,5.000 C10.631,5.000 12.978,11.000 12.978,11.000 C13.305,11.855 15.011,16.000 13.000,16.000 zM7.169,17.013 C7.987,17.013 8.798,17.678 8.980,18.499 C9.163,19.320 8.647,19.985 7.829,19.985 C7.011,19.985 6.200,19.320 6.018,18.499 C5.835,17.678 6.351,17.013 7.169,17.013 zM7.000,18.500 C7.061,18.773 7.331,18.995 7.604,18.995 C7.877,18.995 8.048,18.773 7.988,18.500 C7.927,18.226 7.656,18.004 7.384,18.004 C7.111,18.004 6.939,18.226 7.000,18.500 zM13.164,17.013 C13.974,17.013 14.776,17.678 14.957,18.499 C15.138,19.320 14.628,19.985 13.818,19.985 C13.008,19.985 12.206,19.320 12.025,18.499 C11.845,17.678 12.354,17.013 13.164,17.013 zM13.013,18.500 C13.073,18.773 13.343,18.995 13.616,18.995 C13.888,18.995 14.061,18.773 14.000,18.500 C13.940,18.226 13.670,18.004 13.398,18.004 C13.125,18.004 12.953,18.226 13.013,18.500 zM16.000,15.000 L16.000,14.000 L23.000,14.000 L16.000,15.000 z"  />
  </symbol>
  <symbol id="icon_Catalog"  viewBox="0 0 24 24">
    <path id="cat" d="M6.000,20.000 L6.000,17.000 L4.000,17.000 L4.000,16.000 L8.000,16.000 L8.000,15.000 L6.000,15.000 L6.000,13.000 L4.000,13.000 L4.000,12.000 L8.000,12.000 L8.000,11.000 L6.000,11.000 L6.000,9.000 L4.000,9.000 L4.000,8.000 L8.000,8.000 L8.000,7.000 L6.000,7.000 L6.000,4.000 L19.999,4.000 L19.999,20.000 L6.000,20.000 zM19.000,5.000 L7.000,5.000 L7.000,6.000 L8.031,6.000 L9.000,7.000 L9.000,8.000 L8.000,9.000 L7.000,9.000 L7.000,10.000 L8.094,10.000 L9.000,11.000 L9.000,12.000 L8.000,13.000 L7.000,13.000 L7.000,14.000 L8.062,14.000 L9.000,15.000 L9.000,16.000 L8.000,17.000 L7.000,17.000 L7.000,19.000 L19.000,19.000 L19.000,5.000 zM17.000,11.000 L11.000,11.000 L11.000,6.000 L17.000,6.000 L17.000,11.000 zM16.000,7.000 L12.000,7.000 L12.000,10.000 L16.000,10.000 L16.000,7.000 z"  />
  </symbol>
  <symbol id="icon_Chat"  viewBox="0 0 24 24">
    <path id="ic_chat" d="M4.000,19.000 C4.728,17.609 5.041,16.331 5.000,15.000 C4.019,13.864 3.000,12.491 3.000,11.000 C3.000,6.796 7.246,4.000 12.000,4.000 C16.724,4.000 21.000,6.773 21.000,11.000 C21.000,15.402 15.927,18.634 9.000,17.000 C7.742,17.747 5.951,18.658 4.000,19.000 zM12.000,5.000 C8.004,5.000 4.000,7.915 4.000,11.000 C4.000,12.623 4.971,13.992 6.000,15.000 C6.291,16.871 5.000,18.000 5.000,18.000 C5.000,18.000 7.312,16.947 9.000,16.000 C15.457,17.645 20.000,14.192 20.000,11.000 C20.000,7.915 15.996,5.000 12.000,5.000 z"  />
  </symbol>
  <symbol id="icon_Check"  viewBox="0 0 24 24">
    <path id="ic_arrow_back" d="M21.071,5.636 L7.636,19.071 L7.500,18.935 L7.364,19.071 L2.929,14.636 L3.636,13.929 L7.500,17.793 L20.364,4.929 L21.071,5.636 z"  />
  </symbol>
  <symbol id="icon_ChipRemove"  viewBox="0 0 24 24">
    <path id="Ellipse-13" d="M12.000,20.000 C7.582,20.000 4.000,16.418 4.000,12.000 C4.000,7.582 7.582,4.000 12.000,4.000 C16.418,4.000 20.000,7.582 20.000,12.000 C20.000,16.418 16.418,20.000 12.000,20.000 zM12.000,5.000 C8.134,5.000 5.000,8.134 5.000,12.000 C5.000,15.866 8.134,19.000 12.000,19.000 C15.866,19.000 19.000,15.866 19.000,12.000 C19.000,8.134 15.866,5.000 12.000,5.000 zM15.364,16.071 L12.000,12.707 L8.636,16.071 L7.929,15.364 L11.293,12.000 L7.929,8.636 L8.636,7.929 L12.000,11.293 L15.364,7.929 L16.071,8.636 L12.707,12.000 L16.071,15.364 L15.364,16.071 z"  />
  </symbol>
  <symbol id="icon_CircleCheck"  viewBox="0 0 24 24">
    <path id="Ellipse-5" d="M8.000,12.000 L9.000,11.000 L12.000,14.000 L19.000,6.000 L20.000,7.000 L12.000,16.000 L8.000,12.000 zM12.000,5.000 C8.134,5.000 5.000,8.134 5.000,12.000 C5.000,15.866 8.134,19.000 12.000,19.000 C15.866,19.000 19.000,15.866 19.000,12.000 C19.000,11.689 18.948,11.392 18.908,11.092 C18.908,11.092 19.791,10.209 19.791,10.209 C19.924,10.785 20.000,11.383 20.000,12.000 C20.000,16.418 16.418,20.000 12.000,20.000 C7.582,20.000 4.000,16.418 4.000,12.000 C4.000,7.582 7.582,4.000 12.000,4.000 C13.586,4.000 15.060,4.467 16.303,5.263 C16.303,5.263 15.693,6.076 15.693,6.076 C14.619,5.405 13.360,5.000 12.000,5.000 z"  />
  </symbol>
  <symbol id="icon_CircleMinus"  viewBox="0 0 24 24">
    <path id="Ellipse-11" d="M11.500,20.000 C6.806,20.000 3.000,16.194 3.000,11.500 C3.000,6.806 6.806,3.000 11.500,3.000 C16.194,3.000 20.000,6.806 20.000,11.500 C20.000,16.194 16.194,20.000 11.500,20.000 zM11.500,3.937 C7.323,3.937 3.937,7.323 3.937,11.500 C3.937,15.677 7.323,19.063 11.500,19.063 C15.677,19.063 19.063,15.677 19.063,11.500 C19.063,7.323 15.677,3.937 11.500,3.937 zM6.000,12.000 L6.000,11.000 L17.000,11.000 L17.000,12.000 L6.000,12.000 z"  />
  </symbol>
  <symbol id="icon_CirclePlus"  viewBox="0 0 24 24">
    <path id="Ellipse-11" d="M11.500,20.000 C6.806,20.000 3.000,16.194 3.000,11.500 C3.000,6.806 6.806,3.000 11.500,3.000 C16.194,3.000 20.000,6.806 20.000,11.500 C20.000,16.194 16.194,20.000 11.500,20.000 zM11.500,3.937 C7.323,3.937 3.937,7.323 3.937,11.500 C3.937,15.677 7.323,19.063 11.500,19.063 C15.677,19.063 19.063,15.677 19.063,11.500 C19.063,7.323 15.677,3.937 11.500,3.937 zM12.000,12.000 L12.000,17.000 L11.000,17.000 L11.000,12.000 L6.000,12.000 L6.000,11.000 L11.000,11.000 L11.000,6.000 L12.000,6.000 L12.000,11.000 L17.000,11.000 L17.000,12.000 L12.000,12.000 z"  />
  </symbol>
  <symbol id="icon_Close"  viewBox="0 0 24 24">
    <path id="ic_arrow_back" d="M19.071,18.364 L18.364,19.071 L12.000,12.707 L5.636,19.071 L4.929,18.364 L11.293,12.000 L4.929,5.636 L5.636,4.929 L12.000,11.293 L18.364,4.929 L19.071,5.636 L12.707,12.000 L19.071,18.364 z"  />
  </symbol>
  <symbol id="icon_Comments"  viewBox="0 0 24 24">
    <path id="Shape-6" d="M13.000,16.000 L7.000,20.000 L7.000,16.000 L4.000,16.000 L4.000,4.000 L20.000,4.000 L20.000,16.000 L13.000,16.000 zM19.000,5.000 L5.000,5.000 L5.000,15.000 L8.000,15.000 L8.000,18.000 L12.000,15.000 L19.000,15.000 L19.000,5.000 zM7.000,11.000 L12.000,11.000 L12.000,12.000 L7.000,12.000 L7.000,11.000 zM7.000,9.000 L17.000,9.000 L17.000,10.000 L7.000,10.000 L7.000,9.000 zM7.000,7.000 L17.000,7.000 L17.000,8.000 L7.000,8.000 L7.000,7.000 z"  />
  </symbol>
  <symbol id="icon_Compare"  viewBox="0 0 24 24">
    <path id="Rectangle-10" d="M13.000,21.000 L13.000,11.000 L16.000,8.000 L22.000,8.000 L22.000,21.000 L13.000,21.000 zM21.000,9.000 C16.159,9.000 16.000,9.000 16.000,9.000 L16.000,11.000 L14.000,11.000 L14.000,20.000 L21.000,20.000 C21.000,20.000 21.000,9.000 21.000,9.000 zM17.976,12.438 L16.414,14.000 L20.000,14.000 L20.000,15.000 L16.414,15.000 L17.990,16.576 L17.283,17.283 L14.500,14.500 L17.269,11.731 L17.976,12.438 zM16.000,14.414 L15.914,14.500 L16.000,14.586 L16.000,14.414 zM2.000,3.000 L8.000,3.000 L11.000,6.000 L11.000,16.000 L2.000,16.000 L2.000,3.000 zM3.000,15.000 L10.000,15.000 L10.000,6.000 L8.000,6.000 L8.000,4.000 C8.000,4.000 7.841,4.000 3.000,4.000 C3.000,4.000 3.000,15.000 3.000,15.000 zM6.717,12.283 L6.010,11.576 L7.586,10.000 L4.000,10.000 L4.000,9.000 L7.586,9.000 L6.024,7.438 L6.731,6.731 L9.500,9.500 L6.717,12.283 zM8.000,9.586 L8.086,9.500 L8.000,9.414 L8.000,9.586 z"  />
  </symbol>
  <symbol id="icon_Connect"  viewBox="0 0 24 24">
    <path id="Shape-8" d="M12.000,4.000 C7.580,4.000 4.000,7.585 4.000,12.000 C4.000,16.420 7.585,20.000 12.000,20.000 C16.411,20.000 20.000,16.424 20.000,12.000 C20.000,7.596 16.431,4.000 12.000,4.000 zM18.516,9.349 C17.794,8.942 17.026,8.625 16.227,8.403 C16.151,7.708 15.500,7.128 14.745,7.134 C14.348,6.401 13.861,5.714 13.287,5.085 C15.668,5.525 17.626,7.161 18.516,9.349 zM14.862,14.376 C14.810,14.378 14.758,14.384 14.707,14.392 C13.501,12.417 11.606,10.804 9.278,9.986 C9.272,9.936 9.263,9.887 9.251,9.839 C10.643,9.157 12.156,8.837 13.673,8.875 C13.886,9.302 14.324,9.628 14.838,9.691 C14.839,9.691 14.841,9.691 14.842,9.691 C15.231,11.200 15.249,12.819 14.862,14.376 zM11.961,4.968 C12.745,5.671 13.413,6.501 13.932,7.426 C13.752,7.580 13.621,7.786 13.565,8.027 C11.848,8.006 10.223,8.394 8.776,9.121 C8.181,8.675 7.328,8.827 6.926,9.459 C6.397,9.404 5.927,9.392 5.460,9.408 C6.486,6.817 9.006,4.984 11.961,4.968 zM5.181,10.271 C5.688,10.237 6.188,10.240 6.734,10.292 C6.740,10.346 6.749,10.398 6.762,10.450 C6.100,11.006 5.503,11.642 4.977,12.375 C4.940,11.662 5.009,10.955 5.181,10.271 zM5.164,13.658 C5.709,12.714 6.410,11.872 7.233,11.168 C7.825,11.618 8.689,11.473 9.094,10.825 C11.121,11.566 12.828,12.976 13.947,14.787 C13.412,15.329 13.418,16.184 13.960,16.672 C13.474,17.552 12.853,18.348 12.125,19.031 C8.759,19.088 5.919,16.789 5.164,13.658 zM13.448,18.883 C13.958,18.298 14.396,17.664 14.758,16.992 C14.831,16.995 14.884,16.993 14.947,16.986 C15.072,17.394 15.171,17.814 15.241,18.244 C14.683,18.533 14.082,18.751 13.448,18.883 zM16.020,17.772 C15.944,17.387 15.847,17.007 15.729,16.635 C16.356,16.068 16.330,15.099 15.679,14.619 C16.085,12.998 16.105,11.229 15.677,9.523 C15.807,9.445 15.920,9.345 16.009,9.226 C17.053,9.519 18.025,9.986 18.892,10.594 C19.447,13.334 18.342,16.153 16.020,17.772 z"  />
  </symbol>
  <symbol id="icon_Contract"  viewBox="0 0 24 24">
    <path id="contr" d="M19.000,17.000 L19.000,10.000 L20.000,10.000 L20.000,11.000 L20.000,16.000 L20.000,17.000 L19.000,17.000 zM17.000,10.000 L14.000,8.000 L14.000,8.000 C14.000,8.000 11.891,10.109 11.891,10.109 C12.553,10.297 13.014,10.791 13.000,12.000 C12.981,13.633 12.011,14.562 10.000,15.000 C7.569,15.000 7.132,16.000 10.000,16.000 C10.000,16.000 17.000,16.000 17.000,16.000 L17.000,17.000 C17.000,17.000 10.000,17.000 10.000,17.000 C5.944,17.000 6.006,14.000 10.000,14.000 C10.552,14.000 12.018,12.871 12.000,12.000 C11.978,10.960 11.552,11.000 11.000,11.000 C11.000,11.000 3.000,19.000 3.000,19.000 L4.000,16.000 C4.000,16.000 5.204,14.796 5.204,14.796 C4.198,15.391 2.998,14.911 3.000,14.000 C3.003,12.991 4.749,10.395 5.000,10.000 C5.884,8.607 6.500,7.500 8.000,7.000 C9.077,6.641 11.692,6.797 13.086,6.914 C13.086,6.914 16.000,4.000 16.000,4.000 L17.000,5.000 L14.571,7.429 L18.000,10.000 L18.000,17.000 L17.000,17.000 L17.000,10.000 zM9.137,10.863 C8.618,10.853 8.153,10.882 8.000,11.000 C7.401,11.461 7.000,12.344 6.000,14.000 C6.000,14.000 9.137,10.863 9.137,10.863 zM8.000,8.000 C7.500,8.237 6.000,10.000 6.000,10.000 C6.000,10.000 3.844,13.375 4.000,14.000 C4.156,14.625 5.000,14.000 5.000,14.000 C5.000,14.000 5.773,12.457 7.000,11.000 C7.881,9.954 7.857,9.975 10.005,9.995 C10.005,9.995 12.097,7.903 12.097,7.903 C10.868,7.788 8.738,7.651 8.000,8.000 z"  />
  </symbol>
  <symbol id="icon_Currency"  viewBox="0 0 24 24">
    <path id="ic-Default-currr" d="M15.500,20.000 C14.327,20.000 13.244,19.626 12.351,19.000 C12.351,19.000 10.000,19.000 10.000,19.000 L10.000,18.000 C10.000,18.000 11.290,18.000 11.290,18.000 C11.034,17.692 10.812,17.359 10.627,17.000 C10.627,17.000 10.000,17.000 10.000,17.000 L10.000,16.000 C10.000,16.000 10.233,16.000 10.233,16.000 C10.141,15.677 10.082,15.344 10.050,15.000 C10.050,15.000 10.000,15.000 10.000,15.000 L10.000,14.000 C10.000,14.000 10.050,14.000 10.050,14.000 C10.082,13.656 10.141,13.323 10.233,13.000 C10.233,13.000 10.000,13.000 10.000,13.000 L10.000,12.000 C10.000,12.000 10.627,12.000 10.627,12.000 C10.812,11.641 11.034,11.308 11.290,11.000 C11.290,11.000 10.000,11.000 10.000,11.000 L10.000,10.000 C10.000,10.000 12.351,10.000 12.351,10.000 C13.244,9.374 14.327,9.000 15.500,9.000 C18.538,9.000 21.000,11.462 21.000,14.500 C21.000,17.538 18.538,20.000 15.500,20.000 zM15.500,10.000 C13.015,10.000 11.000,12.015 11.000,14.500 C11.000,16.985 13.015,19.000 15.500,19.000 C17.985,19.000 20.000,16.985 20.000,14.500 C20.000,12.015 17.985,10.000 15.500,10.000 zM16.000,17.000 L16.000,18.000 L15.000,18.000 L15.000,17.000 L13.000,17.000 L13.000,16.000 L15.000,16.000 L15.000,15.000 L14.000,15.000 L13.000,14.000 L13.000,13.000 L14.000,12.000 L15.000,12.000 L15.000,11.000 L16.000,11.000 L16.000,12.000 L18.000,12.000 L18.000,13.000 L16.000,13.000 L16.000,14.000 L17.000,14.000 L18.000,15.000 L18.000,16.000 L17.000,17.000 L16.000,17.000 zM15.000,13.000 L14.000,13.000 L14.000,14.000 L15.000,14.000 L15.000,13.000 zM17.000,15.000 L16.000,15.000 L16.000,16.000 L17.000,16.000 L17.000,15.000 zM10.000,8.000 L16.000,8.000 L16.000,9.000 L10.000,9.000 L10.000,8.000 zM10.000,6.000 L16.000,6.000 L16.000,7.000 L10.000,7.000 L10.000,6.000 zM10.000,4.000 L16.000,4.000 L16.000,5.000 L10.000,5.000 L10.000,4.000 zM3.000,18.000 L9.000,18.000 L9.000,19.000 L3.000,19.000 L3.000,18.000 zM3.000,16.000 L9.000,16.000 L9.000,17.000 L3.000,17.000 L3.000,16.000 zM3.000,14.000 L9.000,14.000 L9.000,15.000 L3.000,15.000 L3.000,14.000 zM3.000,12.000 L9.000,12.000 L9.000,13.000 L3.000,13.000 L3.000,12.000 zM3.000,10.000 L9.000,10.000 L9.000,11.000 L3.000,11.000 L3.000,10.000 z"  />
  </symbol>
  <symbol id="icon_DashboardRe"  viewBox="0 0 24 24">
    <path id="Shape-2" d="M13.000,4.000 L20.000,4.000 L20.000,8.000 L13.000,8.000 L13.000,4.000 zM14.000,7.000 L19.000,7.000 L19.000,5.000 L14.000,5.000 L14.000,7.000 zM4.000,16.000 L11.000,16.000 L11.000,20.000 L4.000,20.000 L4.000,16.000 zM5.000,19.000 L10.000,19.000 L10.000,17.000 L5.000,17.000 L5.000,19.000 zM4.000,4.000 L11.000,4.000 L11.000,15.000 L4.000,15.000 L4.000,4.000 zM5.000,14.000 L10.000,14.000 L10.000,5.000 L5.000,5.000 L5.000,14.000 zM20.000,20.000 L13.000,20.000 L13.000,9.000 L20.000,9.000 L20.000,20.000 zM19.000,10.000 L14.000,10.000 L14.000,19.000 L19.000,19.000 L19.000,10.000 z"  />
  </symbol>
  <symbol id="icon_Discuss"  viewBox="0 0 24 24">
    <path id="Shape-10" d="M19.000,16.000 C19.000,16.000 10.000,16.000 10.000,16.000 L6.000,20.000 L6.058,16.364 C6.058,16.364 5.000,16.000 5.000,16.000 C4.071,16.000 3.000,14.904 3.000,14.000 C3.000,14.000 3.000,6.000 3.000,6.000 C3.000,5.096 4.071,4.000 5.000,4.000 C5.000,4.000 19.000,4.000 19.000,4.000 C19.929,4.000 21.000,5.096 21.000,6.000 C21.000,6.000 21.000,14.000 21.000,14.000 C21.000,14.904 19.929,16.000 19.000,16.000 zM20.000,7.000 C20.000,5.732 19.536,5.000 18.000,5.000 C18.000,5.000 6.000,5.000 6.000,5.000 C4.604,5.000 4.000,5.687 4.000,7.000 C4.000,7.000 4.000,13.000 4.000,13.000 C4.000,14.404 4.651,15.000 6.000,15.000 C6.000,15.000 7.000,15.000 7.000,15.000 L7.000,17.000 L9.000,15.000 C9.000,15.000 18.000,15.000 18.000,15.000 C19.349,15.000 20.000,14.177 20.000,13.000 C20.000,13.000 20.000,7.000 20.000,7.000 zM18.000,11.000 L17.000,11.000 L17.000,9.000 L19.000,9.000 L19.000,11.000 L18.000,13.000 L18.000,11.000 zM15.000,11.000 L14.000,11.000 L14.000,9.000 L16.000,9.000 L16.000,11.000 L15.000,13.000 L15.000,11.000 zM8.000,10.000 L9.000,8.000 L9.000,10.000 L10.000,10.000 L10.000,12.000 L8.000,12.000 L8.000,10.000 zM5.000,10.000 L6.000,8.000 L6.000,10.000 L7.000,10.000 L7.000,12.000 L5.000,12.000 L5.000,10.000 z"  />
  </symbol>
  <symbol id="icon_DownChevron"  viewBox="0 0 24 24">
    <path id="ic_arrow_down" d="M18.219,9.781 L12.000,16.000 L5.781,9.781 L6.488,9.074 L12.000,14.586 L17.512,9.074 L18.219,9.781 z"  />
  </symbol>
  <symbol id="icon_Download"  viewBox="0 0 24 24">
    <path id="Rectangle-4" d="M3.000,21.000 L3.000,7.000 L10.000,7.000 L10.000,8.000 L4.000,8.000 L4.000,20.000 L21.000,20.000 L21.000,8.000 L15.000,8.000 L15.000,7.000 L22.000,7.000 L22.000,21.000 L3.000,21.000 zM18.013,11.987 L13.000,17.000 L13.000,17.000 L13.000,17.000 L12.500,17.500 L12.000,17.000 L12.000,17.000 L12.000,17.000 L6.987,11.987 L7.694,11.280 L12.000,15.586 L12.000,3.000 L13.000,3.000 L13.000,15.586 L17.306,11.280 L18.013,11.987 z"  />
  </symbol>
  <symbol id="icon_Edit"  viewBox="0 0 24 24">
    <path id="edit" d="M21.071,6.757 L12.586,15.243 L8.343,16.657 L9.757,12.414 L15.414,6.757 L15.414,6.757 L16.121,6.050 L16.121,6.050 L18.243,3.929 L21.071,6.757 zM11.172,12.414 L9.757,15.243 L12.586,13.828 L17.536,8.879 L16.121,7.464 L11.172,12.414 zM18.243,8.172 L19.657,6.757 L18.243,5.343 L16.828,6.757 L18.243,8.172 zM5.000,5.000 L5.000,19.000 L16.000,19.000 L16.000,15.000 L17.000,14.000 L17.000,20.000 L4.000,20.000 L4.000,4.000 L15.000,4.000 L14.000,5.000 L5.000,5.000 z"  />
  </symbol>
  <symbol id="icon_ElecSign"  viewBox="0 0 24 24">
    <path id="ic_sign" d="M21.400,5.065 C21.400,5.065 17.157,9.308 17.157,9.308 L15.036,7.186 C15.036,7.186 19.279,2.944 19.279,2.944 C20.531,1.687 22.652,3.808 21.400,5.065 zM19.545,4.092 C19.545,4.092 16.450,7.186 16.450,7.186 L17.157,7.894 C17.157,7.894 20.252,4.799 20.252,4.799 C20.847,4.202 20.140,3.495 19.545,4.092 zM5.000,14.000 L5.000,7.000 L6.000,7.000 L9.868,13.769 C9.868,13.769 10.793,12.843 10.793,12.843 C11.227,11.570 11.966,10.259 12.915,9.308 C12.915,9.308 14.329,7.894 14.329,7.894 L16.450,10.015 C16.450,10.015 15.036,11.429 15.036,11.429 C14.088,12.381 12.769,13.115 11.500,13.550 C11.500,13.550 10.086,14.965 10.086,14.965 L9.379,14.257 L9.637,14.000 L9.000,14.000 L6.000,8.750 L6.000,14.000 L5.000,14.000 zM11.972,12.608 C12.537,12.321 13.147,11.905 13.622,11.429 C13.622,11.429 15.036,10.015 15.036,10.015 L14.329,9.308 C14.329,9.308 12.915,10.722 12.915,10.722 C12.440,11.198 12.023,11.805 11.736,12.372 C11.736,12.372 11.972,12.608 11.972,12.608 zM13.000,4.000 C13.000,4.000 3.000,4.000 3.000,4.000 C3.000,4.000 3.000,21.000 3.000,21.000 C8.178,21.000 13.000,21.000 13.000,21.000 L13.000,17.000 L17.000,17.000 C17.000,17.000 16.972,13.328 16.972,13.491 C16.976,13.455 16.995,12.442 17.000,13.000 C17.000,13.000 18.000,12.000 18.000,12.000 L18.000,17.000 L13.000,22.000 L2.000,22.000 L2.000,3.000 L15.000,3.000 C15.000,3.000 14.000,4.000 14.000,4.000 C13.577,4.000 13.298,4.000 13.000,4.000 zM14.000,20.000 L16.000,18.000 L14.000,18.000 L14.000,20.000 z"  />
  </symbol>
  <symbol id="icon_Email"  viewBox="0 0 24 24">
    <path id="Rounded-Rectangl" d="M20.000,18.000 C20.000,18.000 4.000,18.000 4.000,18.000 C3.448,18.000 3.000,17.552 3.000,17.000 C3.000,17.000 3.000,7.000 3.000,7.000 C3.000,6.448 3.448,6.000 4.000,6.000 C4.000,6.000 20.000,6.000 20.000,6.000 C20.552,6.000 21.000,6.448 21.000,7.000 C21.000,7.000 21.000,17.000 21.000,17.000 C21.000,17.552 20.552,18.000 20.000,18.000 zM4.000,7.000 L12.000,12.000 L20.000,7.000 L4.000,7.000 zM20.000,7.000 L20.000,7.000 L20.000,8.000 L12.000,13.000 L4.000,8.000 L4.000,17.000 L20.000,17.000 L20.000,7.000 z"  />
  </symbol>
  <symbol id="icon_EmailSend"  viewBox="0 0 24 24">
    <path id="ic_mail" d="M20.000,12.710 C20.000,12.710 20.000,20.000 20.000,20.000 C20.000,20.552 19.552,21.000 19.000,21.000 C19.000,21.000 3.000,21.000 3.000,21.000 C2.448,21.000 2.000,20.552 2.000,20.000 C2.000,20.000 2.000,10.000 2.000,10.000 C2.000,9.448 2.448,9.000 3.000,9.000 C3.000,9.000 11.050,9.000 11.050,9.000 C11.035,8.833 11.000,8.671 11.000,8.500 C11.000,5.462 13.462,3.000 16.500,3.000 C19.538,3.000 22.000,5.462 22.000,8.500 C22.000,10.200 21.212,11.701 20.000,12.710 zM3.000,20.000 L19.000,20.000 C19.000,20.000 19.000,13.373 19.000,13.373 C19.000,13.373 19.000,13.373 19.000,13.373 C18.247,13.760 17.405,14.000 16.500,14.000 C15.871,14.000 15.277,13.872 14.715,13.678 C14.715,13.678 11.000,16.000 11.000,16.000 L3.000,11.000 L3.000,20.000 zM3.000,10.000 L11.000,15.000 C11.000,15.000 13.788,13.258 13.788,13.258 C13.788,13.258 13.788,13.258 13.788,13.258 C12.554,12.553 11.631,11.395 11.233,10.000 C11.233,10.000 11.233,10.000 11.233,10.000 C11.233,10.000 3.000,10.000 3.000,10.000 zM16.500,3.929 C13.975,3.929 11.929,5.975 11.929,8.500 C11.929,11.025 13.975,13.071 16.500,13.071 C19.025,13.071 21.071,11.025 21.071,8.500 C21.071,5.975 19.025,3.929 16.500,3.929 zM18.689,8.383 L17.000,6.694 L17.000,12.000 L16.000,12.000 L16.000,6.738 L14.405,8.333 L13.698,7.626 L15.815,5.509 L15.784,5.478 L16.491,4.771 L16.522,4.802 L16.522,4.802 L16.950,5.230 L19.396,7.676 L18.689,8.383 z"  />
  </symbol>
  <symbol id="icon_FileRepo"  viewBox="0 0 24 24">
    <path id="Shape-4" d="M19.000,12.000 L19.000,10.000 L6.000,10.000 L6.000,12.000 L5.000,12.000 L4.000,9.000 L21.000,9.000 L20.000,12.000 L19.000,12.000 zM18.000,8.000 L18.000,7.000 L7.000,7.000 L7.000,8.000 L6.000,8.000 L5.000,6.000 L20.000,6.000 L19.000,8.000 L18.000,8.000 zM7.000,5.000 L6.000,4.000 L19.000,4.000 L18.000,5.000 L7.000,5.000 zM10.000,13.000 L15.000,13.000 L16.000,13.000 L21.000,13.000 L20.000,20.000 L5.000,20.000 L4.000,13.000 L9.000,13.000 L10.000,13.000 zM5.000,14.000 L6.000,19.000 L19.000,19.000 L20.000,14.000 L17.000,14.000 L16.000,14.000 L9.000,14.000 L8.000,14.000 L5.000,14.000 zM9.500,16.000 C9.500,16.000 15.500,16.000 15.500,16.000 C15.776,16.000 16.000,16.224 16.000,16.500 C16.000,16.776 15.776,17.000 15.500,17.000 C15.500,17.000 9.500,17.000 9.500,17.000 C9.224,17.000 9.000,16.776 9.000,16.500 C9.000,16.224 9.224,16.000 9.500,16.000 z"  />
  </symbol>
  <symbol id="icon_Filter"  viewBox="0 0 24 24">
    <path id="ic_arrow_back" d="M14.000,13.000 L14.000,20.000 L10.000,19.000 L10.000,13.000 L4.000,4.000 L20.000,4.000 L14.000,13.000 zM11.000,13.000 L11.000,18.000 L13.000,19.000 L13.000,13.000 L18.000,5.000 L6.000,5.000 L11.000,13.000 z"  />
  </symbol>
  <symbol id="icon_FilterAppli"  viewBox="0 0 24 24">
    <path id="ic_arrow_back" d="M22.000,14.000 C22.000,17.314 19.314,20.000 16.000,20.000 C14.456,20.000 13.063,19.401 12.000,18.443 C12.000,18.443 12.000,20.000 12.000,20.000 L8.000,19.000 L8.000,13.000 L2.000,4.000 L18.000,4.000 C18.000,4.000 15.285,8.072 15.285,8.072 C15.522,8.044 15.755,8.000 16.000,8.000 C19.314,8.000 22.000,10.686 22.000,14.000 zM16.000,5.000 L4.000,5.000 L9.000,13.000 L9.000,18.000 L11.000,19.000 C11.000,19.000 11.000,17.309 11.000,17.309 C10.371,16.360 10.000,15.224 10.000,14.000 C10.000,11.439 11.612,9.269 13.870,8.408 C13.870,8.408 13.870,8.408 13.870,8.408 C13.870,8.408 16.000,5.000 16.000,5.000 zM11.013,14.000 C11.013,16.754 13.246,18.987 16.000,18.987 C18.754,18.987 20.987,16.754 20.987,14.000 C20.987,11.246 18.754,9.013 16.000,9.013 C13.246,9.013 11.013,11.246 11.013,14.000 zM18.268,11.525 L18.975,12.232 L14.732,16.475 L14.627,16.369 L14.426,16.570 L12.305,14.449 L13.012,13.742 L14.531,15.262 L18.268,11.525 z"  />
  </symbol>
  <symbol id="icon_FilterReset"  viewBox="0 0 24 24">
    <path id="ic_arrow_back" d="M22.000,14.000 C22.000,17.314 19.314,20.000 16.000,20.000 C14.456,20.000 13.063,19.401 12.000,18.443 C12.000,18.443 12.000,20.000 12.000,20.000 L8.000,19.000 L8.000,13.000 L2.000,4.000 L18.000,4.000 C18.000,4.000 15.285,8.072 15.285,8.072 C15.522,8.044 15.755,8.000 16.000,8.000 C19.314,8.000 22.000,10.686 22.000,14.000 zM16.000,5.000 L4.000,5.000 L9.000,13.000 L9.000,18.000 L11.000,19.000 C11.000,19.000 11.000,17.309 11.000,17.309 C10.371,16.360 10.000,15.224 10.000,14.000 C10.000,11.439 11.612,9.269 13.870,8.408 C13.870,8.408 13.870,8.408 13.870,8.408 C13.870,8.408 16.000,5.000 16.000,5.000 zM11.013,14.000 C11.013,16.754 13.246,18.987 16.000,18.987 C18.754,18.987 20.987,16.754 20.987,14.000 C20.987,11.246 18.754,9.013 16.000,9.013 C13.246,9.013 11.013,11.246 11.013,14.000 zM18.238,11.016 L18.984,11.762 L16.746,14.000 L18.984,16.238 L18.238,16.984 L16.000,14.746 L13.762,16.984 L13.016,16.238 L15.254,14.000 L13.016,11.762 L13.762,11.016 L16.000,13.254 L18.238,11.016 z"  />
  </symbol>
  <symbol id="icon_FilterSave"  viewBox="0 0 24 24">
    <path id="ic_arrow_back" d="M18.000,10.000 L18.000,10.000 L18.000,10.000 L21.000,13.000 L21.000,19.000 L20.000,20.000 L19.000,20.000 C19.000,20.000 19.000,20.000 19.000,20.000 C19.000,20.307 18.529,20.000 18.222,20.000 C18.222,20.000 13.778,20.000 13.778,20.000 L12.000,20.000 L11.000,19.000 L11.000,19.500 L9.000,19.000 L9.000,13.000 L3.000,4.000 L19.000,4.000 L15.000,10.000 L18.000,10.000 zM17.000,11.000 L14.000,11.000 L14.000,13.000 L17.000,13.000 L17.000,11.000 zM14.000,19.000 L18.000,19.000 L18.000,16.000 L14.000,16.000 L14.000,19.000 zM12.000,19.000 L13.000,19.000 C13.000,19.000 13.000,16.000 13.000,16.000 C13.000,15.693 13.693,15.000 14.000,15.000 C14.000,15.000 18.000,15.000 18.000,15.000 C18.307,15.000 19.000,15.693 19.000,16.000 C19.000,16.000 19.000,19.000 19.000,19.000 L20.000,19.000 L20.000,13.000 L18.000,11.000 L18.000,14.000 L13.000,14.000 L13.000,11.000 L12.000,11.000 L12.000,19.000 zM17.000,5.000 L5.000,5.000 L10.000,13.000 L10.000,18.000 L11.000,18.500 L11.000,11.000 L12.000,10.000 L13.000,10.000 L13.000,10.000 L13.875,10.000 L17.000,5.000 z"  />
  </symbol>
  <symbol id="icon_FistApprove"  viewBox="0 0 24 24">
    <path id="ic_approve" d="M4.000,15.000 C3.329,13.973 3.526,12.447 4.000,12.000 C2.091,10.306 2.986,8.594 4.000,8.000 C4.000,8.000 7.953,7.998 8.000,8.000 C7.415,5.534 7.478,1.998 10.038,1.998 C11.455,1.998 11.802,3.250 12.194,4.481 C13.815,9.574 17.674,10.625 20.000,10.880 C20.000,12.686 20.000,16.973 20.000,19.000 C16.443,19.000 15.058,18.725 12.000,20.000 C7.973,21.746 4.402,21.235 4.841,17.620 C3.987,16.792 3.630,15.778 4.000,15.000 zM5.000,9.000 C4.303,9.386 4.164,11.000 5.000,11.000 C5.000,11.000 8.000,11.000 8.000,11.000 C8.580,11.000 9.000,10.376 9.000,10.000 C9.000,9.680 8.525,9.000 8.000,9.000 C8.000,9.000 5.000,9.000 5.000,9.000 zM19.000,18.000 C19.000,16.170 19.000,14.158 19.000,12.000 C14.508,11.623 11.922,8.045 10.995,5.218 C10.707,4.341 11.074,3.000 10.000,3.000 C8.449,3.000 9.053,5.963 9.688,8.230 C9.958,9.199 10.677,10.012 10.066,11.175 C11.153,11.541 11.913,14.242 11.000,15.000 C11.725,15.694 11.297,17.203 10.416,17.867 C10.747,18.251 11.047,18.528 11.000,19.000 C12.477,18.496 15.255,18.000 19.000,18.000 zM7.000,20.000 C7.000,20.000 9.000,20.000 9.000,20.000 C9.558,20.000 10.000,19.367 10.000,19.000 C10.000,18.570 9.524,18.000 9.000,18.000 C9.000,18.000 6.000,18.000 6.000,18.000 C6.047,18.589 6.042,19.625 7.000,20.000 zM6.000,17.000 C6.000,17.000 9.000,17.000 9.000,17.000 C9.558,17.000 10.000,16.340 10.000,16.000 C10.000,15.660 9.558,15.000 9.000,15.000 C9.000,15.000 5.000,15.000 5.000,15.000 C4.901,15.811 5.080,17.000 6.000,17.000 zM6.000,14.000 C6.000,14.000 9.000,14.000 9.000,14.000 C9.556,14.000 10.000,13.329 10.000,13.000 C10.000,12.667 9.559,12.000 9.000,12.000 C9.000,12.000 5.000,12.000 5.000,12.000 C4.896,12.750 5.164,14.000 6.000,14.000 z"  />
  </symbol>
  <symbol id="icon_FistReject"  viewBox="0 0 24 24">
    <path id="ic_reject" d="M12.205,19.243 C11.814,20.611 11.467,22.002 10.052,22.002 C7.496,22.002 7.415,17.740 8.000,15.000 C7.578,15.034 5.000,15.000 5.000,15.000 C3.924,14.131 4.154,12.632 5.000,12.000 C4.527,11.503 3.580,10.140 5.000,9.000 C4.630,8.136 3.897,6.920 5.000,6.000 C4.562,1.984 7.291,0.980 12.000,3.000 C15.093,4.327 16.448,5.000 20.000,5.000 C20.000,7.251 20.000,10.993 20.000,13.000 C17.677,13.283 13.824,13.585 12.205,19.243 zM19.000,6.000 C13.279,6.000 10.547,3.031 9.000,3.000 C9.000,3.000 7.000,3.000 7.000,3.000 C6.512,3.000 6.047,4.346 6.000,5.000 C6.000,5.000 8.000,5.000 8.000,5.000 L8.000,6.000 C8.000,6.000 7.000,6.000 7.000,6.000 C6.081,6.000 5.307,7.099 6.000,8.000 C6.000,8.000 8.000,8.000 8.000,8.000 L8.000,9.000 C8.000,9.000 6.453,9.023 6.453,9.023 C5.900,9.023 5.366,10.291 6.000,11.000 C6.000,11.000 8.000,11.000 8.000,11.000 L8.000,12.000 C8.000,12.000 7.000,12.000 7.000,12.000 C6.164,12.000 5.897,13.154 6.000,14.000 C6.000,14.000 8.000,14.000 8.000,14.000 C8.174,14.000 8.880,14.087 9.000,14.000 C9.000,14.000 10.000,14.000 10.000,14.000 C9.870,14.560 9.847,14.505 9.703,15.078 C9.069,17.597 9.044,20.214 9.872,20.486 C10.636,20.738 10.722,19.398 11.008,18.425 C11.934,15.284 14.515,12.419 19.000,12.000 C19.000,9.603 19.000,8.033 19.000,6.000 z"  />
  </symbol>
  <symbol id="icon_Fullscreen"  viewBox="0 0 24 24">
    <path id="Rectangle-5" d="M20.000,21.000 L15.000,21.000 L15.000,20.000 L19.000,20.000 L14.000,15.000 L15.000,14.000 L20.000,19.000 L20.000,15.000 L21.000,15.000 L21.000,20.000 L21.000,21.000 L20.000,21.000 zM20.000,5.000 L15.000,10.000 L14.000,9.000 L19.000,4.000 L15.000,4.000 L15.000,3.000 L20.000,3.000 L21.000,3.000 L21.000,4.000 L21.000,9.000 L20.000,9.000 L20.000,5.000 zM9.000,20.000 L9.000,21.000 L4.000,21.000 L3.000,21.000 L3.000,20.000 L3.000,15.000 L4.000,15.000 L4.000,19.000 L9.000,14.000 L10.000,15.000 L5.000,20.000 L9.000,20.000 zM9.000,10.000 L4.000,5.000 L4.000,9.000 L3.000,9.000 L3.000,4.000 L3.000,3.000 L4.000,3.000 L9.000,3.000 L9.000,4.000 L5.000,4.000 L10.000,9.000 L9.000,10.000 z"  />
  </symbol>
  <symbol id="icon_Help"  viewBox="0 0 24 24">
    <path id="Shape-12" d="M12.000,4.990 C15.874,4.990 19.010,8.125 19.010,12.000 C19.010,15.874 15.874,19.010 12.000,19.010 C8.125,19.010 4.989,15.874 4.989,12.000 C4.989,8.126 8.437,5.000 12.000,5.000 M12.000,4.000 C7.581,4.000 4.000,7.581 4.000,12.000 C4.000,16.418 7.581,20.000 12.000,20.000 C16.418,20.000 20.000,16.418 20.000,12.000 C20.000,7.581 16.418,4.000 12.000,4.000 C12.000,4.000 12.000,4.000 12.000,4.000 zM12.000,17.015 C11.444,17.015 10.993,16.564 10.993,16.007 C10.993,15.451 11.444,15.000 12.000,15.000 C12.557,15.000 13.007,15.451 13.007,16.007 C13.007,16.564 12.557,17.015 12.000,17.015 zM13.000,14.000 C13.000,14.000 13.000,14.000 13.000,14.000 C13.000,14.000 11.153,14.000 11.000,14.000 C11.000,14.000 11.000,14.000 11.000,14.000 C11.000,13.479 11.272,12.583 11.877,12.003 C12.481,11.422 13.000,10.726 13.000,10.000 C13.000,9.448 12.680,8.990 11.978,8.990 C10.808,8.990 11.029,10.733 11.000,11.000 C11.000,11.000 9.000,11.000 9.000,11.000 C9.012,9.016 9.642,7.436 11.988,7.436 C14.022,7.436 15.000,8.723 15.000,10.000 C15.000,12.033 13.000,12.689 13.000,14.000 z"  />
  </symbol>
  <symbol id="icon_History"  viewBox="0 0 24 24">
    <path id="Ellipse-2" d="M13.000,11.000 L16.000,11.000 L16.000,12.000 L12.000,12.000 L12.000,6.000 L13.000,6.000 L13.000,11.000 zM12.500,19.000 C10.429,19.000 8.554,18.161 7.197,16.803 C7.197,16.803 7.860,16.140 7.860,16.140 C9.047,17.328 10.688,18.063 12.500,18.063 C16.124,18.063 19.063,15.124 19.063,11.500 C19.063,7.876 16.124,4.937 12.500,4.937 C8.876,4.937 5.937,7.876 5.937,11.500 C5.937,11.671 5.975,11.832 5.988,12.000 C5.988,12.000 8.000,12.000 8.000,12.000 L5.500,15.000 L3.000,12.000 C3.000,12.000 5.025,12.000 5.025,12.000 C5.014,11.834 5.000,11.669 5.000,11.500 C5.000,7.358 8.358,4.000 12.500,4.000 C16.642,4.000 20.000,7.358 20.000,11.500 C20.000,15.642 16.642,19.000 12.500,19.000 z"  />
  </symbol>
  <symbol id="icon_InvRecon"  viewBox="0 0 24 24">
    <path id="i-r" d="M5.000,21.000 L5.000,3.000 L19.000,3.000 L19.000,21.000 L5.000,21.000 zM18.000,4.000 L6.000,4.000 L6.000,20.000 L18.000,20.000 L18.000,4.000 zM8.000,16.000 L7.000,15.000 L7.000,14.000 L8.000,13.000 L8.000,16.000 zM9.000,16.000 L8.000,16.000 L8.000,15.000 L9.000,15.000 L9.000,14.000 L8.000,14.000 L8.000,13.000 L9.000,13.000 L9.000,12.000 L10.000,12.000 L10.000,13.000 L12.000,13.000 L12.000,14.000 L10.000,14.000 L10.000,15.000 L11.000,15.000 L11.000,15.000 L12.000,16.000 L12.000,17.000 L11.000,18.000 L11.000,18.000 L10.000,18.000 L10.000,19.000 L9.000,19.000 L9.000,18.000 L7.000,18.000 L7.000,17.000 L9.000,17.000 L9.000,16.000 zM10.000,17.000 L11.000,17.000 L11.000,16.000 L10.000,16.000 L10.000,17.000 zM17.000,14.000 L13.000,14.000 L13.000,13.000 L17.000,13.000 L17.000,14.000 zM17.000,16.000 L13.000,16.000 L13.000,15.000 L17.000,15.000 L17.000,16.000 zM17.000,18.000 L13.000,18.000 L13.000,17.000 L17.000,17.000 L17.000,18.000 zM11.000,10.000 L11.000,11.000 L8.004,9.500 L11.000,8.000 L11.000,9.000 L14.951,9.000 L16.000,8.000 L16.000,9.000 L15.000,10.000 L11.000,10.000 zM13.000,7.000 L9.000,7.000 L9.000,6.000 L13.000,6.000 L13.000,5.000 L15.996,6.500 L13.000,8.000 L13.000,7.000 zM8.000,7.000 L9.000,6.000 L9.000,7.000 L8.000,8.000 L8.000,7.000 z"  />
  </symbol>
  <symbol id="icon_Key"  viewBox="0 0 24 24">
    <path id="Shape-2" d="M22.000,22.000 L17.000,22.000 L17.000,20.000 L15.000,20.000 L15.000,18.000 L13.000,18.000 L13.000,16.000 L11.000,16.000 C11.000,16.000 10.482,15.611 10.482,15.611 C10.995,15.444 11.483,15.225 11.944,14.963 C11.944,14.963 12.000,15.000 12.000,15.000 L14.000,15.000 L14.000,17.000 L16.000,17.000 L16.000,19.000 L18.000,19.000 L18.000,21.000 L21.000,21.000 L21.000,19.000 C21.000,19.000 14.280,12.952 14.280,12.952 C14.429,12.763 14.571,12.568 14.702,12.366 C14.702,12.366 22.000,19.000 22.000,19.000 L22.000,22.000 zM7.996,14.008 C4.681,14.008 1.993,11.317 1.993,7.998 C1.993,4.679 4.681,1.988 7.996,1.988 C11.311,1.988 13.998,4.679 13.998,7.998 C13.998,11.317 11.311,14.008 7.996,14.008 zM8.000,3.000 C5.277,3.000 3.000,5.328 3.000,8.000 C3.000,10.672 5.277,13.000 8.000,13.000 C10.723,13.000 13.000,10.672 13.000,8.000 C13.000,5.328 10.723,3.000 8.000,3.000 zM6.500,8.000 C5.672,8.000 5.000,7.328 5.000,6.500 C5.000,5.672 5.672,5.000 6.500,5.000 C7.328,5.000 8.000,5.672 8.000,6.500 C8.000,7.328 7.328,8.000 6.500,8.000 zM6.500,6.000 C6.224,6.000 6.000,6.224 6.000,6.500 C6.000,6.776 6.224,7.000 6.500,7.000 C6.776,7.000 7.000,6.776 7.000,6.500 C7.000,6.224 6.776,6.000 6.500,6.000 z"  />
  </symbol>
  <symbol id="icon_Language"  viewBox="0 0 24 24">
    <path id="ic_timezone-copy" d="M20.977,18.816 C20.949,19.731 21.973,22.000 21.973,22.000 C21.973,22.000 18.823,21.245 17.984,20.732 C13.366,21.855 10.000,19.029 10.000,16.003 C10.000,13.097 12.850,11.000 16.000,11.000 C19.169,11.000 22.000,13.113 22.000,16.003 C22.000,17.028 21.631,18.035 20.977,18.816 zM16.000,12.000 C13.239,12.000 11.000,13.791 11.000,16.000 C11.000,18.209 13.239,20.000 16.000,20.000 C16.779,20.000 17.507,19.845 18.164,19.591 C19.134,20.082 20.441,20.739 21.000,21.000 C21.000,21.000 19.871,20.063 19.710,18.660 C20.503,17.952 21.000,17.026 21.000,16.000 C21.000,13.791 18.761,12.000 16.000,12.000 zM17.851,9.181 C17.672,8.211 17.309,7.308 16.798,6.505 C16.187,6.864 15.478,7.175 14.680,7.415 C14.788,7.941 14.860,8.498 14.913,9.067 C14.578,9.104 14.247,9.157 13.923,9.227 C13.877,8.686 13.815,8.159 13.720,7.663 C12.874,7.847 11.957,7.953 11.000,7.983 C11.000,7.983 11.000,10.000 11.000,10.000 C11.000,10.000 11.708,10.000 11.708,10.000 C11.076,10.319 10.501,10.708 10.000,11.155 C10.000,11.155 10.000,11.000 10.000,11.000 C10.000,11.000 7.022,11.000 7.022,11.000 C7.047,11.825 7.141,12.607 7.280,13.336 C7.674,13.251 8.087,13.187 8.507,13.134 C8.349,13.472 8.224,13.825 8.140,14.193 C7.928,14.225 7.709,14.249 7.507,14.291 C7.507,14.291 7.507,14.291 7.507,14.291 C7.652,14.817 7.828,15.296 8.026,15.730 C8.109,16.865 8.573,17.962 9.356,18.902 C7.163,18.602 5.253,17.460 3.924,15.820 C3.915,15.828 3.903,15.835 3.893,15.843 C3.787,15.711 3.695,15.568 3.597,15.429 C3.560,15.377 3.522,15.326 3.485,15.273 C3.440,15.206 3.389,15.145 3.345,15.077 C3.351,15.072 3.359,15.067 3.365,15.062 C2.604,13.874 2.112,12.496 2.024,11.000 C2.024,11.000 2.000,11.000 2.000,11.000 L2.000,10.000 C2.000,10.000 2.024,10.000 2.024,10.000 C2.112,8.504 2.604,7.126 3.365,5.938 C3.359,5.933 3.351,5.928 3.345,5.923 C3.389,5.855 3.441,5.793 3.486,5.726 C3.522,5.674 3.559,5.624 3.596,5.572 C3.694,5.433 3.786,5.289 3.893,5.157 C3.903,5.165 3.915,5.172 3.924,5.180 C5.382,3.380 7.537,2.169 10.000,2.025 C10.000,2.025 10.000,2.000 10.000,2.000 L11.000,2.000 C11.000,2.000 11.000,2.025 11.000,2.025 C13.463,2.169 15.618,3.380 17.076,5.180 C17.085,5.172 17.097,5.165 17.107,5.157 C17.213,5.289 17.305,5.432 17.403,5.571 C17.440,5.623 17.478,5.674 17.515,5.727 C17.560,5.794 17.611,5.855 17.655,5.923 C17.649,5.928 17.641,5.933 17.635,5.938 C18.299,6.975 18.741,8.163 18.905,9.441 C18.563,9.335 18.210,9.250 17.851,9.181 zM7.973,17.532 C7.377,16.767 6.890,15.731 6.548,14.527 C6.548,14.527 6.548,14.527 6.548,14.527 C6.215,14.624 5.904,14.734 5.611,14.854 C5.591,14.861 5.573,14.870 5.554,14.878 C5.270,14.997 5.003,15.124 4.758,15.261 C5.602,16.276 6.701,17.075 7.973,17.532 zM4.202,14.494 C4.202,14.494 4.202,14.494 4.202,14.494 C4.487,14.327 4.795,14.172 5.123,14.029 C5.164,14.011 5.203,13.993 5.245,13.975 C5.585,13.832 5.940,13.699 6.320,13.585 C6.320,13.585 6.320,13.585 6.320,13.585 C6.153,12.774 6.045,11.909 6.017,11.000 C6.017,11.000 3.040,11.000 3.040,11.000 C3.126,12.286 3.550,13.470 4.202,14.494 zM4.202,6.506 C3.550,7.530 3.126,8.714 3.040,10.000 C3.040,10.000 6.017,10.000 6.017,10.000 C6.045,9.091 6.154,8.226 6.320,7.415 C5.522,7.175 4.813,6.864 4.202,6.506 zM4.758,5.739 C5.270,6.025 5.868,6.275 6.548,6.473 C6.890,5.268 7.377,4.233 7.973,3.468 C6.701,3.925 5.603,4.723 4.758,5.739 zM10.000,3.108 C8.932,3.438 8.032,4.806 7.507,6.709 C8.277,6.866 9.120,6.956 10.000,6.984 C10.000,6.984 10.000,3.108 10.000,3.108 zM10.000,7.983 C9.043,7.953 8.126,7.848 7.280,7.663 C7.141,8.393 7.047,9.175 7.022,10.000 C7.022,10.000 10.000,10.000 10.000,10.000 C10.000,10.000 10.000,7.983 10.000,7.983 zM11.000,3.108 C11.000,3.108 11.000,6.984 11.000,6.984 C11.880,6.956 12.723,6.866 13.493,6.709 C12.968,4.806 12.068,3.438 11.000,3.108 zM13.027,3.468 C13.623,4.233 14.110,5.268 14.452,6.473 C15.132,6.275 15.730,6.025 16.242,5.739 C15.397,4.723 14.299,3.925 13.027,3.468 z"  />
  </symbol>
  <symbol id="icon_Logout"  viewBox="0 0 24 24">
    <path id="Shape-12-copy" d="M12.000,20.000 C7.581,20.000 4.000,16.418 4.000,12.000 C4.000,8.643 6.069,5.774 9.000,4.586 C9.000,4.586 9.000,5.744 9.000,5.744 C6.723,6.891 4.989,9.254 4.989,12.000 C4.989,15.874 8.125,19.010 12.000,19.010 C15.874,19.010 19.010,15.874 19.010,12.000 C19.010,9.204 17.365,6.813 15.000,5.687 C15.000,5.687 15.000,4.587 15.000,4.587 C17.930,5.774 20.000,8.643 20.000,12.000 C20.000,16.418 16.418,20.000 12.000,20.000 zM12.000,13.000 C11.448,13.000 11.000,12.552 11.000,12.000 C11.000,12.000 11.000,4.000 11.000,4.000 C11.000,3.448 11.448,3.000 12.000,3.000 C12.552,3.000 13.000,3.448 13.000,4.000 C13.000,4.000 13.000,12.000 13.000,12.000 C13.000,12.552 12.552,13.000 12.000,13.000 z"  />
  </symbol>
  <symbol id="icon_Lookup"  viewBox="0 0 24 24">
    <path id="Ellipse-12" d="M21.000,16.016 C21.000,18.216 19.209,20.000 17.000,20.000 C14.791,20.000 13.000,18.216 13.000,16.016 C13.000,16.013 13.001,16.011 13.001,16.008 C13.001,16.008 13.000,16.008 13.000,16.008 L13.000,14.000 L11.000,14.000 L11.000,13.000 L13.000,13.000 L13.000,11.000 L11.000,11.000 L11.000,10.000 L13.000,10.000 C13.000,10.000 13.000,10.021 13.000,10.021 C13.000,9.547 13.120,9.105 13.317,8.707 C13.317,8.707 13.000,9.023 13.000,9.023 C13.000,9.023 13.000,6.996 13.000,6.029 C13.000,4.719 16.375,4.626 17.000,6.029 C17.271,6.588 17.560,7.162 17.758,7.551 C18.384,7.963 18.803,8.541 19.000,9.023 C19.000,9.023 21.000,15.010 21.000,15.010 C21.000,15.010 20.856,15.010 20.856,15.010 C20.941,15.333 21.000,15.666 21.000,16.016 zM16.000,6.029 L14.000,6.029 C14.000,6.029 14.000,7.804 14.000,7.804 C14.532,7.326 15.228,7.027 16.000,7.027 C16.183,7.027 16.355,7.046 16.523,7.072 C16.523,7.072 16.000,6.029 16.000,6.029 zM19.000,12.017 C17.875,9.262 17.573,8.025 16.000,8.025 C14.895,8.025 14.000,8.919 14.000,10.021 C14.000,10.021 14.000,13.405 14.000,13.405 C14.733,12.570 15.798,12.031 17.000,12.031 C17.826,12.031 18.594,12.281 19.231,12.709 C19.231,12.709 19.000,12.017 19.000,12.017 zM17.000,13.000 C15.343,13.000 14.000,14.343 14.000,16.000 C14.000,17.657 15.343,19.000 17.000,19.000 C18.657,19.000 20.000,17.657 20.000,16.000 C20.000,14.343 18.657,13.000 17.000,13.000 zM15.000,15.000 C15.281,16.469 16.351,17.243 18.000,18.000 C16.068,18.375 14.504,17.083 15.000,15.000 zM7.000,20.000 C4.791,20.000 3.000,18.209 3.000,16.000 C3.000,15.653 3.058,15.321 3.141,15.000 C3.141,15.000 3.000,15.000 3.000,15.000 C3.000,15.000 5.000,9.000 5.000,9.000 C5.197,8.517 5.616,7.938 6.242,7.526 C6.440,7.135 6.729,6.560 7.000,6.000 C7.625,4.594 11.000,4.687 11.000,6.000 C11.000,6.969 11.000,9.000 11.000,9.000 C11.000,9.000 10.683,8.683 10.683,8.683 C10.880,9.082 11.000,9.525 11.000,10.000 C11.000,10.000 11.000,16.000 11.000,16.000 C11.000,16.000 11.000,16.000 11.000,16.000 C11.000,18.209 9.209,20.000 7.000,20.000 zM10.000,6.000 L8.000,6.000 C8.000,6.000 7.477,7.045 7.477,7.045 C7.645,7.019 7.817,7.000 8.000,7.000 C8.772,7.000 9.468,7.300 10.000,7.779 C10.000,7.779 10.000,6.000 10.000,6.000 zM10.000,10.000 C10.000,8.895 9.105,8.000 8.000,8.000 C6.427,8.000 6.125,9.239 5.000,12.000 C5.000,12.000 4.774,12.677 4.774,12.677 C5.411,12.250 6.176,12.000 7.000,12.000 C8.202,12.000 9.267,12.541 10.000,13.380 C10.000,13.380 10.000,10.000 10.000,10.000 zM10.000,16.000 C10.000,16.000 10.000,16.000 10.000,16.000 C10.000,16.000 10.000,16.000 10.000,16.000 C10.000,14.343 8.657,13.000 7.000,13.000 C5.343,13.000 4.000,14.343 4.000,16.000 C4.000,17.657 5.343,19.000 7.000,19.000 C8.657,19.000 10.000,17.657 10.000,16.000 C10.000,16.000 10.000,16.000 10.000,16.000 zM5.000,15.000 C5.281,16.469 6.351,17.243 8.000,18.000 C6.068,18.375 4.504,17.083 5.000,15.000 z"  />
  </symbol>
  <symbol id="icon_MenuHmbrgr"  viewBox="0 0 24 24">
    <path id="Icon_menu" d="M4.000,16.992 L20.000,16.992 L20.000,16.000 L4.000,16.000 L4.000,16.992 zM4.000,12.000 L20.000,12.000 L20.000,11.001 L4.000,11.001 L4.000,12.000 zM4.000,6.007 L4.000,7.000 L20.000,7.000 L20.000,6.007 L4.000,6.007 z"  />
  </symbol>
  <symbol id="icon_MenuKebab"  viewBox="0 0 24 24">
    <path id="Rectangle-9" d="M10.000,19.000 L10.000,16.000 L13.000,16.000 L13.000,19.000 L10.000,19.000 zM12.000,17.000 L11.000,17.000 L11.000,18.000 L12.000,18.000 L12.000,17.000 zM10.000,10.000 L13.000,10.000 L13.000,13.000 L10.000,13.000 L10.000,10.000 zM11.000,12.000 L12.000,12.000 L12.000,11.000 L11.000,11.000 L11.000,12.000 zM10.000,4.000 L13.000,4.000 L13.000,7.000 L10.000,7.000 L10.000,4.000 zM11.000,6.000 L12.000,6.000 L12.000,5.000 L11.000,5.000 L11.000,6.000 z"  />
  </symbol>
  <symbol id="icon_Notificatio"  viewBox="0 0 24 24">
    <path id="ic_approve-copy" d="M12.000,17.000 L12.000,16.000 C12.000,16.000 18.000,16.000 18.000,16.000 C15.518,15.885 16.784,5.000 12.000,5.000 C12.000,5.000 12.000,4.000 12.000,4.000 C17.884,4.031 16.068,13.785 19.000,16.000 C19.000,16.000 19.000,17.000 19.000,17.000 L12.000,17.000 zM5.000,16.000 C7.932,13.785 6.115,4.031 12.000,4.000 C12.000,4.000 12.000,5.000 12.000,5.000 C7.216,5.000 8.482,15.885 6.000,16.000 C6.000,16.000 12.000,16.000 12.000,16.000 L12.000,17.000 L5.000,17.000 C5.000,17.000 5.000,16.000 5.000,16.000 zM12.000,20.000 C10.895,20.000 10.000,19.065 10.000,18.000 C10.000,18.000 14.000,18.000 14.000,18.000 C14.000,19.065 13.105,20.000 12.000,20.000 z"  />
  </symbol>
  <symbol id="icon_OnBehalf"  viewBox="0 0 24 24">
    <path id="Ellipse-6" d="M8.000,19.000 C8.000,19.000 8.000,17.000 8.000,17.000 C8.000,15.292 11.333,14.000 14.000,14.000 C16.667,14.000 20.000,15.229 20.000,17.000 C20.000,17.000 20.000,19.000 20.000,19.000 L8.000,19.000 zM19.000,17.000 C19.000,15.933 14.976,15.000 14.000,15.000 C12.962,15.000 9.000,15.933 9.000,17.000 C9.000,17.000 9.000,18.000 9.000,18.000 L19.000,18.000 C19.000,18.000 19.000,17.000 19.000,17.000 zM14.000,12.000 C11.791,12.000 11.000,9.511 11.000,8.000 C11.000,5.801 11.791,5.000 14.000,5.000 C16.209,5.000 17.000,5.895 17.000,8.000 C17.000,9.636 16.209,12.000 14.000,12.000 zM14.000,6.000 C12.527,6.000 12.000,6.572 12.000,8.143 C12.000,9.222 12.527,11.000 14.000,11.000 C15.473,11.000 16.000,9.312 16.000,8.143 C16.000,6.639 15.473,6.000 14.000,6.000 zM10.000,8.286 C10.000,9.339 10.267,10.709 10.871,11.846 C10.607,11.937 10.323,12.000 10.000,12.000 C7.791,12.000 7.000,9.511 7.000,8.000 C7.000,5.801 7.791,5.000 10.000,5.000 C10.306,5.000 10.579,5.021 10.832,5.057 C10.252,5.738 10.000,6.777 10.000,8.286 zM7.000,16.600 C7.000,16.600 7.000,19.000 7.000,19.000 L4.000,19.000 C4.000,19.000 4.000,17.000 4.000,17.000 C4.000,15.431 6.809,14.226 9.334,14.038 C7.975,14.681 7.000,15.576 7.000,16.600 z"  />
  </symbol>
  <symbol id="icon_Order"  viewBox="0 0 24 24">
    <path id="order" d="M4.000,21.000 L4.000,6.000 L6.000,6.000 L6.000,8.000 L18.000,8.000 L18.000,6.000 L20.000,6.000 L20.000,21.000 L4.000,21.000 zM19.000,9.000 L5.000,9.000 L5.000,20.000 L19.000,20.000 L19.000,9.000 zM13.000,17.000 L7.000,17.000 L7.000,11.000 L13.000,11.000 L13.000,17.000 zM12.000,12.000 L8.000,12.000 L8.000,16.000 L12.000,16.000 L12.000,12.000 zM17.000,12.000 L14.000,12.000 L14.000,11.000 L17.000,11.000 L17.000,12.000 zM17.000,14.000 L14.000,14.000 L14.000,13.000 L17.000,13.000 L17.000,14.000 zM7.000,6.000 L17.000,6.000 L17.000,7.000 L7.000,7.000 L7.000,6.000 zM13.000,4.000 L11.000,4.000 L11.000,3.000 L13.000,3.000 L13.000,3.000 L14.000,4.000 L14.000,6.000 L13.000,6.000 L13.000,4.000 zM10.000,4.000 L11.000,3.000 L11.000,6.000 L10.000,6.000 L10.000,4.000 z"  />
  </symbol>
  <symbol id="icon_Phone"  viewBox="0 0 24 24">
    <path id="ic_phone" d="M8.025,15.475 C2.700,10.149 2.320,7.037 5.904,3.454 C5.904,3.454 10.854,8.404 10.854,8.404 C10.854,8.404 9.439,9.818 9.439,9.818 C9.064,10.193 8.754,10.547 10.854,12.646 C12.953,14.746 13.238,14.505 13.682,14.061 C13.772,13.971 15.096,12.646 15.096,12.646 C15.096,12.646 19.939,17.490 20.046,17.596 C16.463,21.179 13.350,20.800 8.025,15.475 zM8.732,14.768 C12.886,18.922 16.064,20.174 18.632,17.596 C18.632,17.596 15.096,14.061 15.096,14.061 C14.694,14.466 14.419,14.739 14.389,14.768 C12.973,16.184 12.091,15.298 10.146,13.354 C8.202,11.409 7.269,10.574 8.732,9.111 C8.732,9.111 9.439,8.404 9.439,8.404 C9.439,8.404 5.904,4.868 5.904,4.868 C3.453,7.328 4.578,10.614 8.732,14.768 z"  />
  </symbol>
  <symbol id="icon_Preview"  viewBox="0 0 24 24">
    <path id="Ellipse-10" d="M20.923,12.360 C20.969,12.575 21.000,12.789 21.000,13.000 C21.000,13.000 20.511,13.000 20.511,13.000 C19.870,13.766 18.630,14.597 17.000,15.000 C17.000,15.000 17.000,14.000 17.000,14.000 C18.497,13.706 19.606,12.959 19.909,12.326 C19.487,10.696 17.592,9.134 15.029,8.415 C15.626,9.113 16.000,10.009 16.000,11.000 C16.000,13.209 14.209,15.000 12.000,15.000 C9.791,15.000 8.000,13.209 8.000,11.000 C8.000,10.009 8.374,9.113 8.971,8.415 C6.418,9.131 4.525,10.683 4.094,12.306 C4.411,12.920 5.569,13.705 7.000,14.000 C7.000,14.000 7.000,15.000 7.000,15.000 C5.370,14.597 4.130,13.766 3.489,13.000 C3.489,13.000 3.000,13.000 3.000,13.000 C3.000,12.789 3.031,12.575 3.077,12.360 C3.027,12.232 3.000,12.110 3.000,12.000 C3.000,12.000 3.170,12.000 3.170,12.000 C3.976,9.513 7.621,7.000 12.000,7.000 C16.379,7.000 20.024,9.513 20.830,12.000 C20.830,12.000 21.000,12.000 21.000,12.000 C21.000,12.110 20.973,12.232 20.923,12.360 zM12.000,8.000 C10.343,8.000 9.000,9.343 9.000,11.000 C9.000,12.657 10.343,14.000 12.000,14.000 C13.657,14.000 15.000,12.657 15.000,11.000 C15.000,9.343 13.657,8.000 12.000,8.000 zM12.000,12.000 C11.448,12.000 11.000,11.552 11.000,11.000 C11.000,10.448 11.448,10.000 12.000,10.000 C12.552,10.000 13.000,10.448 13.000,11.000 C13.000,11.552 12.552,12.000 12.000,12.000 z"  />
  </symbol>
  <symbol id="icon_Print"  viewBox="0 0 24 24">
    <path id="print" d="M19.000,18.000 C19.000,18.000 17.000,18.000 17.000,18.000 L17.000,21.000 L7.000,21.000 L7.000,18.000 C7.000,18.000 5.000,18.000 5.000,18.000 C3.895,18.000 3.000,17.105 3.000,16.000 C3.000,16.000 3.000,10.000 3.000,10.000 C3.000,8.895 3.895,8.000 5.000,8.000 C5.000,8.000 7.000,8.000 7.000,8.000 L7.000,3.000 L14.000,3.000 L17.000,6.000 L17.000,8.000 C17.000,8.000 19.000,8.000 19.000,8.000 C20.105,8.000 21.000,8.895 21.000,10.000 C21.000,10.000 21.000,16.000 21.000,16.000 C21.000,17.105 20.105,18.000 19.000,18.000 zM8.000,20.000 L16.000,20.000 L16.000,15.000 L8.000,15.000 L8.000,20.000 zM13.000,7.000 L13.000,4.000 L8.000,4.000 L8.000,10.000 L16.000,10.000 L16.000,7.000 L13.000,7.000 zM14.000,4.000 L14.000,6.000 L16.000,6.000 L14.000,4.000 zM20.000,10.000 C20.000,9.489 19.480,9.000 19.000,9.000 C19.000,9.000 17.000,9.000 17.000,9.000 L17.000,11.000 L7.000,11.000 L7.000,9.000 C7.000,9.000 5.000,9.000 5.000,9.000 C4.458,9.000 4.000,9.489 4.000,10.000 C4.000,10.000 4.000,16.000 4.000,16.000 C4.000,16.542 4.427,17.000 5.000,17.000 C5.000,17.000 7.000,17.000 7.000,17.000 L7.000,14.000 L17.000,14.000 L17.000,17.000 C17.000,17.000 19.000,17.000 19.000,17.000 C19.511,17.000 20.000,16.605 20.000,16.000 C20.000,16.000 20.000,10.000 20.000,10.000 zM10.000,18.000 L14.000,18.000 L14.000,19.000 L10.000,19.000 L10.000,18.000 zM10.000,16.000 L14.000,16.000 L14.000,17.000 L10.000,17.000 L10.000,16.000 z"  />
  </symbol>
  <symbol id="icon_ProcPolicy"  viewBox="0 0 24 24">
    <path id="Shape-6" d="M14.000,20.000 L5.000,20.000 L5.000,4.000 L19.000,4.000 L19.000,15.000 L14.000,20.000 zM15.000,18.000 L17.000,16.000 L15.000,16.000 L15.000,18.000 zM18.000,5.000 L6.000,5.000 C6.000,5.000 6.000,19.000 6.000,19.000 C10.841,19.000 14.000,19.000 14.000,19.000 L14.000,15.000 L18.000,15.000 L18.000,5.000 zM10.000,11.000 L16.000,11.000 L16.000,12.000 L10.000,12.000 L10.000,11.000 zM10.000,9.000 L16.000,9.000 L16.000,10.000 L10.000,10.000 L10.000,9.000 zM10.000,7.000 L16.000,7.000 L16.000,8.000 L10.000,8.000 L10.000,7.000 zM8.000,12.000 L8.000,11.000 L9.000,11.000 L9.000,12.000 L8.500,12.000 L8.000,12.000 zM8.000,10.000 L8.000,9.000 L9.000,9.000 L9.000,10.000 L8.500,10.000 L8.000,10.000 zM8.000,8.000 L8.000,7.000 L9.000,7.000 L9.000,8.000 L8.500,8.000 L8.000,8.000 z"  />
  </symbol>
  <symbol id="icon_ReachUs"  viewBox="0 0 24 24">
    <path id="ic_cellphone" d="M12.681,11.847 C11.912,12.314 9.024,13.000 9.024,13.000 C9.024,13.000 9.963,10.937 9.938,10.105 C9.339,9.395 9.000,8.480 9.000,7.548 C9.000,4.921 11.595,3.000 14.500,3.000 C17.387,3.000 20.000,4.906 20.000,7.548 C20.000,10.299 16.915,12.868 12.681,11.847 zM14.500,3.991 C12.012,3.991 9.995,5.557 9.995,7.488 C9.995,8.375 10.434,9.176 11.136,9.792 C11.104,11.091 10.100,11.889 10.100,11.889 C10.634,11.642 11.848,11.078 12.692,10.686 C13.246,10.876 13.856,10.984 14.500,10.984 C16.988,10.984 19.005,9.419 19.005,7.488 C19.005,5.557 16.988,3.991 14.500,3.991 zM16.000,7.000 L17.000,7.000 L17.000,8.000 L16.000,8.000 L16.000,7.000 zM14.000,7.000 L15.000,7.000 L15.000,8.000 L14.000,8.000 L14.000,7.000 zM12.000,7.000 L13.000,7.000 L13.000,8.000 L12.000,8.000 L12.000,7.000 zM5.000,9.000 L5.000,16.000 L12.000,16.000 C12.000,16.000 12.000,13.000 12.000,13.000 C12.443,13.025 12.545,12.995 13.000,13.000 C13.000,13.000 13.000,19.000 13.000,19.000 C13.000,20.974 12.990,21.000 11.000,21.000 C11.000,21.000 6.000,21.000 6.000,21.000 C4.041,21.000 4.000,20.969 4.000,19.000 C4.000,19.000 4.000,10.000 4.000,10.000 C4.000,8.057 4.072,8.000 6.000,8.000 C6.000,8.000 8.000,8.000 8.000,8.000 C7.874,8.633 7.835,8.346 8.000,9.000 C8.000,9.000 5.000,9.000 5.000,9.000 zM11.000,20.000 L12.000,20.000 L12.000,19.000 L11.000,19.000 L11.000,20.000 zM11.000,18.000 L12.000,18.000 L12.000,17.000 L11.000,17.000 L11.000,18.000 zM9.000,20.000 L10.000,20.000 L10.000,19.000 L9.000,19.000 L9.000,20.000 zM9.000,18.000 L10.000,18.000 L10.000,17.000 L9.000,17.000 L9.000,18.000 zM7.000,20.000 L8.000,20.000 L8.000,19.000 L7.000,19.000 L7.000,20.000 zM7.000,18.000 L8.000,18.000 L8.000,17.000 L7.000,17.000 L7.000,18.000 zM5.000,20.000 L6.000,20.000 L6.000,19.000 L5.000,19.000 L5.000,20.000 zM5.000,18.000 L6.000,18.000 L6.000,17.000 L5.000,17.000 L5.000,18.000 z"  />
  </symbol>
  <symbol id="icon_Requisition"  viewBox="0 0 24 24">
    <path id="req" d="M19.000,20.000 L15.000,20.000 L15.000,19.000 L18.000,19.000 L19.000,19.000 L19.000,9.000 L15.000,9.000 L15.000,5.000 L9.000,5.000 L9.000,11.000 L8.000,10.000 L8.000,4.000 L16.000,4.000 L20.000,8.000 L20.000,20.000 L19.000,20.000 zM16.000,5.000 L16.000,8.000 L19.000,8.000 L16.000,5.000 zM9.898,18.457 L4.241,12.800 L6.362,10.678 L12.019,16.335 L9.898,18.457 zM5.655,12.800 L9.898,17.042 L10.605,16.335 L6.362,12.093 L5.655,12.800 zM11.000,11.000 L17.000,11.000 L17.000,12.000 L11.000,12.000 L11.000,11.000 zM17.000,14.000 L12.000,14.000 L11.000,13.000 L17.000,13.000 L17.000,14.000 zM13.691,20.128 L10.691,19.128 L12.691,17.128 L13.691,20.128 z"  />
  </symbol>
  <symbol id="icon_RfxReq"  viewBox="0 0 24 24">
    <path id="Icon_Search-copy" d="M20.997,20.003 L8.000,20.000 L8.000,18.000 L5.000,18.000 L5.000,16.000 L3.000,16.000 L3.000,8.000 L5.000,8.000 L5.000,6.000 L8.000,6.000 L8.000,4.000 L17.000,4.000 L21.000,8.000 L20.997,20.003 zM5.000,9.000 L4.000,9.000 L4.000,15.000 L5.000,15.000 L5.000,9.000 zM8.008,13.983 L8.000,13.983 L8.000,13.009 L8.008,13.009 L8.008,11.982 L8.000,11.982 L8.000,11.008 L8.008,11.008 L8.008,10.007 L8.000,10.007 L8.000,7.000 L6.000,7.000 L6.000,17.000 L8.000,17.000 L8.000,15.009 L8.008,15.009 L8.008,13.983 zM16.000,9.000 L16.000,5.000 L9.000,5.000 L9.000,19.000 L20.000,19.000 L20.000,10.000 L20.000,9.000 L16.000,9.000 zM17.000,5.000 L17.000,8.000 L20.000,8.000 L17.000,5.000 zM11.000,16.000 L18.000,16.000 L18.000,17.000 L11.000,17.000 L11.000,16.000 zM11.000,14.007 L17.990,14.007 L17.990,15.008 L11.000,15.008 L11.000,14.007 zM11.000,12.007 L17.990,12.007 L17.990,12.993 L11.000,12.993 L11.000,12.007 zM11.000,9.991 L16.011,9.991 L16.011,11.018 L11.000,11.018 L11.000,9.991 zM6.997,15.009 L6.997,13.983 L8.000,13.983 L8.000,15.009 L6.997,15.009 zM6.997,11.982 L8.000,11.982 L8.000,13.009 L6.997,13.009 L6.997,11.982 zM6.997,10.007 L8.000,10.007 L8.000,11.008 L6.997,11.008 L6.997,10.007 z"  />
  </symbol>
  <symbol id="icon_Save"  viewBox="0 0 24 24">
    <path id="Rectangle-3" d="M21.000,20.000 C21.000,20.552 20.552,21.000 20.000,21.000 C20.000,21.000 16.000,21.000 16.000,21.000 C16.000,21.000 16.000,21.000 16.000,21.000 C16.000,21.000 8.000,21.000 8.000,21.000 C8.000,21.000 8.000,21.000 8.000,21.000 C8.000,21.000 4.000,21.000 4.000,21.000 C3.448,21.000 3.000,20.552 3.000,20.000 C3.000,20.000 3.000,4.000 3.000,4.000 C3.000,3.448 3.448,3.000 4.000,3.000 C4.000,3.000 7.000,3.000 7.000,3.000 L7.000,3.000 L16.000,3.000 L16.000,3.000 L16.000,3.000 L21.000,8.000 C21.000,8.000 21.000,20.000 21.000,20.000 zM8.000,20.000 L16.000,20.000 L16.000,13.000 L8.000,13.000 L8.000,20.000 zM15.000,4.000 L8.000,4.000 L8.000,8.000 L15.000,8.000 L15.000,4.000 zM20.000,8.000 L16.000,4.000 L16.000,9.000 L7.000,9.000 L7.000,4.000 L4.000,4.000 L4.000,20.000 L7.000,20.000 C7.000,20.000 7.000,13.000 7.000,13.000 C7.000,12.448 7.448,12.000 8.000,12.000 C8.000,12.000 16.000,12.000 16.000,12.000 C16.552,12.000 17.000,12.448 17.000,13.000 C17.000,13.000 17.000,20.000 17.000,20.000 L20.000,20.000 L20.000,8.000 zM9.000,17.000 L15.000,17.000 L15.000,18.000 L9.000,18.000 L9.000,17.000 zM9.000,15.000 L15.000,15.000 L15.000,16.000 L9.000,16.000 L9.000,15.000 z"  />
  </symbol>
  <symbol id="icon_Search"  viewBox="0 0 24 24">
    <path id="Icon_Search" d="M21.043,20.325 L20.336,21.033 C20.336,21.033 12.861,13.557 12.861,13.557 C11.815,14.444 10.479,15.000 9.000,15.000 C5.686,15.000 3.000,12.314 3.000,9.000 C3.000,5.686 5.686,3.000 9.000,3.000 C12.314,3.000 15.000,5.686 15.000,9.000 C15.000,10.473 14.448,11.805 13.567,12.849 C13.567,12.849 21.043,20.325 21.043,20.325 zM9.000,4.000 C6.239,4.000 4.000,6.239 4.000,9.000 C4.000,11.761 6.239,14.000 9.000,14.000 C11.761,14.000 14.000,11.761 14.000,9.000 C14.000,6.239 11.761,4.000 9.000,4.000 z"  />
  </symbol>
  <symbol id="icon_Settings"  viewBox="0 0 24 24">
    <path id="Ellipse-4" d="M19.000,14.000 C19.000,14.000 18.678,14.000 18.678,14.000 C18.538,14.463 18.340,14.899 18.113,15.316 C18.113,15.316 18.355,15.558 18.355,15.558 C19.136,16.339 19.136,17.605 18.355,18.386 C17.574,19.167 16.307,19.167 15.526,18.386 C15.526,18.386 15.274,18.134 15.274,18.134 C14.869,18.349 14.447,18.535 14.000,18.670 C14.000,18.670 14.000,19.000 14.000,19.000 C14.000,20.105 13.105,21.000 12.000,21.000 C10.895,21.000 10.000,20.105 10.000,19.000 C10.000,19.000 10.000,18.670 10.000,18.670 C9.538,18.531 9.104,18.335 8.687,18.110 C8.687,18.110 8.455,18.342 8.455,18.342 C7.674,19.123 6.408,19.123 5.627,18.342 C4.846,17.561 4.846,16.294 5.627,15.513 C5.627,15.513 5.863,15.278 5.863,15.278 C5.646,14.872 5.458,14.449 5.322,14.000 C5.322,14.000 5.000,14.000 5.000,14.000 C3.895,14.000 3.000,13.105 3.000,12.000 C3.000,10.895 3.895,10.000 5.000,10.000 C5.000,10.000 5.322,10.000 5.322,10.000 C5.460,9.544 5.653,9.115 5.875,8.703 C5.875,8.703 5.636,8.464 5.636,8.464 C4.855,7.683 4.855,6.417 5.636,5.636 C6.417,4.855 7.683,4.855 8.464,5.636 C8.464,5.636 8.706,5.878 8.706,5.878 C9.117,5.658 9.545,5.467 10.000,5.330 C10.000,5.330 10.000,5.000 10.000,5.000 C10.000,3.895 10.895,3.000 12.000,3.000 C13.105,3.000 14.000,3.895 14.000,5.000 C14.000,5.000 14.000,5.330 14.000,5.330 C14.455,5.467 14.883,5.658 15.294,5.878 C15.294,5.878 15.536,5.636 15.536,5.636 C16.317,4.855 17.583,4.855 18.364,5.636 C19.145,6.417 19.145,7.683 18.364,8.464 C18.364,8.464 18.125,8.703 18.125,8.703 C18.347,9.115 18.540,9.544 18.678,10.000 C18.678,10.000 19.000,10.000 19.000,10.000 C20.105,10.000 21.000,10.895 21.000,12.000 C21.000,13.105 20.105,14.000 19.000,14.000 zM20.000,11.000 C20.000,11.000 18.908,11.000 18.908,11.000 C18.908,11.000 18.908,11.000 18.908,11.000 C18.908,11.000 17.909,11.000 17.909,11.000 C17.756,10.091 17.393,9.255 16.879,8.535 C16.879,8.535 17.584,7.830 17.584,7.830 C17.584,7.830 17.584,7.830 17.584,7.830 C17.584,7.830 18.364,7.050 18.364,7.050 L16.950,5.636 C16.950,5.636 16.169,6.417 16.169,6.417 C16.169,6.417 16.169,6.417 16.169,6.417 C16.169,6.417 15.461,7.124 15.461,7.124 C14.741,6.615 13.907,6.254 13.000,6.101 C13.000,6.101 13.000,6.000 13.000,6.000 L13.000,6.000 L13.000,4.000 L11.000,4.000 C11.000,4.000 11.000,5.101 11.000,5.101 C11.000,5.101 11.000,5.101 11.000,5.101 C11.000,5.101 11.000,6.101 11.000,6.101 C10.093,6.254 9.259,6.615 8.539,7.124 C8.539,7.124 7.831,6.417 7.831,6.417 C7.831,6.417 7.831,6.417 7.831,6.417 C7.831,6.417 7.050,5.636 7.050,5.636 L5.636,7.050 C5.636,7.050 6.416,7.830 6.416,7.830 C6.416,7.830 6.416,7.830 6.416,7.830 C6.416,7.830 7.121,8.536 7.121,8.536 C6.607,9.255 6.244,10.091 6.091,11.000 C6.091,11.000 5.092,11.000 5.092,11.000 C5.092,11.000 5.092,11.000 5.092,11.000 C5.092,11.000 4.000,11.000 4.000,11.000 L4.000,13.000 L6.000,13.000 L6.000,13.000 C6.000,13.000 6.091,13.000 6.091,13.000 C6.244,13.909 6.607,14.745 7.121,15.464 C7.121,15.464 6.416,16.170 6.416,16.170 C6.411,16.164 6.408,16.157 6.404,16.151 C6.404,16.151 5.627,16.928 5.627,16.928 L7.041,18.342 L8.455,16.928 L8.471,16.943 C8.471,16.943 8.539,16.876 8.539,16.876 C9.259,17.385 10.093,17.746 11.000,17.899 C11.000,17.899 11.000,18.899 11.000,18.899 C11.000,18.899 11.000,18.899 11.000,18.899 C11.000,18.899 11.000,20.000 11.000,20.000 L13.000,20.000 L13.000,18.000 L13.000,18.000 C13.000,18.000 13.000,17.899 13.000,17.899 C13.907,17.746 14.741,17.385 15.461,16.876 C15.461,16.876 16.169,17.583 16.169,17.583 C16.163,17.587 16.156,17.590 16.149,17.595 C16.149,17.595 16.941,18.386 16.941,18.386 L18.355,16.972 L16.941,15.558 L16.956,15.542 C16.956,15.542 16.879,15.465 16.879,15.465 C17.393,14.745 17.756,13.909 17.909,13.000 C17.909,13.000 18.000,13.000 18.000,13.000 L18.000,13.000 L20.000,13.000 L20.000,11.000 zM12.000,15.000 C10.343,15.000 9.000,13.657 9.000,12.000 C9.000,10.343 10.343,9.000 12.000,9.000 C13.657,9.000 15.000,10.343 15.000,12.000 C15.000,13.657 13.657,15.000 12.000,15.000 zM12.000,9.993 C10.892,9.993 9.993,10.892 9.993,12.000 C9.993,13.108 10.892,14.007 12.000,14.007 C13.108,14.007 14.007,13.108 14.007,12.000 C14.007,10.892 13.108,9.993 12.000,9.993 z"  />
  </symbol>
  <symbol id="icon_Share"  viewBox="0 0 24 24">
    <path id="Ellipse-7" d="M18.000,9.000 C16.980,9.000 16.082,8.488 15.540,7.710 C15.540,7.710 8.763,10.829 8.763,10.829 C8.915,11.189 9.000,11.585 9.000,12.000 C9.000,12.447 8.896,12.868 8.720,13.249 C8.720,13.249 15.492,16.359 15.492,16.359 C16.028,15.542 16.950,15.000 18.000,15.000 C19.657,15.000 21.000,16.343 21.000,18.000 C21.000,19.657 19.657,21.000 18.000,21.000 C16.343,21.000 15.000,19.657 15.000,18.000 C15.000,17.750 15.040,17.511 15.097,17.278 C15.097,17.278 8.149,14.087 8.149,14.087 C7.604,14.649 6.844,15.000 6.000,15.000 C4.343,15.000 3.000,13.657 3.000,12.000 C3.000,10.343 4.343,9.000 6.000,9.000 C6.877,9.000 7.659,9.383 8.208,9.984 C8.208,9.984 15.122,6.802 15.122,6.802 C15.051,6.545 15.000,6.280 15.000,6.000 C15.000,4.343 16.343,3.000 18.000,3.000 C19.657,3.000 21.000,4.343 21.000,6.000 C21.000,7.657 19.657,9.000 18.000,9.000 zM18.000,20.000 C19.105,20.000 20.000,19.105 20.000,18.000 C20.000,16.895 19.105,16.000 18.000,16.000 C16.895,16.000 16.000,16.895 16.000,18.000 C16.000,19.105 16.895,20.000 18.000,20.000 zM6.000,10.000 C4.895,10.000 4.000,10.895 4.000,12.000 C4.000,13.105 4.895,14.000 6.000,14.000 C7.105,14.000 8.000,13.105 8.000,12.000 C8.000,10.895 7.105,10.000 6.000,10.000 zM18.000,4.000 C16.895,4.000 16.000,4.895 16.000,6.000 C16.000,7.105 16.895,8.000 18.000,8.000 C19.105,8.000 20.000,7.105 20.000,6.000 C20.000,4.895 19.105,4.000 18.000,4.000 z"  />
  </symbol>
  <symbol id="icon_ShipLoc"  viewBox="0 0 24 24">
    <path id="ic_Shipping" d="M23.000,18.000 C23.000,18.000 19.950,18.000 19.950,18.000 C19.718,19.141 18.709,20.000 17.500,20.000 C16.291,20.000 15.282,19.141 15.050,18.000 C15.050,18.000 8.950,18.000 8.950,18.000 C8.718,19.141 7.709,20.000 6.500,20.000 C5.291,20.000 4.282,19.141 4.050,18.000 C4.050,18.000 2.000,18.000 2.000,18.000 L2.000,6.000 L17.000,6.000 L17.000,9.000 L19.000,9.000 L23.000,13.000 L23.000,18.000 zM17.500,19.000 C18.328,19.000 19.000,18.328 19.000,17.500 C19.000,16.672 18.328,16.000 17.500,16.000 C16.672,16.000 16.000,16.672 16.000,17.500 C16.000,18.328 16.672,19.000 17.500,19.000 zM6.500,19.000 C7.328,19.000 8.000,18.328 8.000,17.500 C8.000,16.672 7.328,16.000 6.500,16.000 C5.672,16.000 5.000,16.672 5.000,17.500 C5.000,18.328 5.672,19.000 6.500,19.000 zM16.000,7.000 L3.000,7.000 L3.000,12.000 L16.000,12.000 L16.000,7.000 zM19.000,10.000 L17.000,10.000 L17.000,13.000 L22.000,13.000 L19.000,10.000 zM22.000,14.000 L16.000,14.000 L16.000,13.000 L3.000,13.000 L3.000,17.000 C3.000,17.000 4.050,17.000 4.050,17.000 C4.282,15.859 5.291,15.000 6.500,15.000 C7.709,15.000 8.718,15.859 8.950,17.000 C8.950,17.000 15.050,17.000 15.050,17.000 C15.282,15.859 16.291,15.000 17.500,15.000 C18.709,15.000 19.718,15.859 19.950,17.000 C19.950,17.000 22.000,17.000 22.000,17.000 L22.000,14.000 z"  />
  </symbol>
  <symbol id="icon_Sort"  viewBox="0 0 24 24">
    <path id="ic_arrow_left" d="M17.000,16.766 L13.500,20.001 L10.000,16.766 L10.825,16.004 L13.000,18.014 L13.000,11.000 L14.000,11.000 L14.000,18.014 L16.175,16.004 L17.000,16.766 zM11.000,5.986 L11.000,13.000 L10.000,13.000 L10.000,5.986 L7.825,7.996 L7.000,7.234 L10.500,3.999 L14.000,7.234 L13.175,7.996 L11.000,5.986 z"  />
  </symbol>
  <symbol id="icon_Star"  viewBox="0 0 24 24">
    <path id="Rectangle-8" d="M16.705,13.834 L18.167,20.000 L12.500,16.909 L6.833,20.000 L8.295,13.834 L4.000,9.182 L9.901,8.637 L12.500,3.000 L15.099,8.637 L21.000,9.182 L16.705,13.834 zM14.487,9.310 L12.500,5.000 L10.513,9.310 L6.000,9.727 L9.285,13.285 L8.167,18.000 L12.500,15.636 L16.833,18.000 L15.715,13.285 L19.000,9.727 L14.487,9.310 z"  />
  </symbol>
  <symbol id="icon_SuggestPart"  viewBox="0 0 24 24">
    <path id="Rounded-Rectangl" d="M11.563,8.042 L18.927,15.406 L18.220,16.113 L15.806,13.699 L15.099,14.406 L17.513,16.820 L16.806,17.528 L14.391,15.113 L13.684,15.820 L16.099,18.235 L15.391,18.942 L12.977,16.528 L12.270,17.235 L14.684,19.649 L13.977,20.356 L11.563,17.942 L10.856,18.649 C10.856,18.649 13.270,21.063 13.270,21.063 C13.661,21.454 14.294,21.454 14.684,21.063 C14.684,21.063 19.634,16.113 19.634,16.113 C20.025,15.723 20.025,15.090 19.634,14.699 C19.634,14.699 12.270,7.335 12.270,7.335 L11.563,8.042 z"  />
    <path id="Rectangle-2" d="M21.632,9.354 L17.389,13.596 L16.682,12.889 L20.218,9.354 L16.975,6.111 L15.561,7.525 L15.854,7.818 L15.146,8.525 L14.854,8.232 L14.854,8.232 L14.146,7.525 L14.146,7.525 L12.025,5.404 L8.782,8.646 L9.490,9.354 L11.318,7.525 L12.025,8.232 C12.025,8.232 10.197,10.061 10.197,10.061 C9.806,10.451 9.173,10.451 8.782,10.061 C8.782,10.061 8.075,9.354 8.075,9.354 C7.685,8.963 7.685,8.330 8.075,7.939 C8.075,7.939 11.318,4.697 11.318,4.697 C11.708,4.306 12.342,4.306 12.732,4.697 C12.732,4.697 14.854,6.818 14.854,6.818 L16.268,5.404 L16.268,5.404 L16.975,4.697 L17.682,5.404 L17.682,5.404 L21.632,9.354 z"  />
    <path id="Rectangle-2-copy" d="M9.009,6.864 L8.341,7.578 L7.325,6.450 L3.322,10.727 L5.669,13.289 L5.001,14.002 L1.994,10.720 L2.662,10.006 L2.662,10.006 L7.337,5.009 L8.005,5.723 L7.993,5.736 L9.009,6.864 z"  />
    <path id="Rounded-Rectangl" d="M12.836,18.223 C12.836,18.223 10.715,20.344 10.715,20.344 C10.325,20.735 9.691,20.735 9.301,20.344 C9.301,20.344 8.594,19.637 8.594,19.637 C8.462,19.506 8.391,19.344 8.349,19.175 C8.180,19.132 8.018,19.062 7.887,18.930 C7.887,18.930 7.180,18.223 7.180,18.223 C7.048,18.091 6.977,17.929 6.934,17.761 C6.766,17.718 6.604,17.648 6.472,17.516 C6.472,17.516 5.765,16.809 5.765,16.809 C5.634,16.677 5.563,16.515 5.520,16.347 C5.352,16.304 5.190,16.233 5.058,16.102 C5.058,16.102 4.351,15.395 4.351,15.395 C3.961,15.004 3.961,14.371 4.351,13.980 C4.351,13.980 7.180,11.152 7.180,11.152 C7.570,10.761 8.203,10.761 8.594,11.152 C8.594,11.152 9.301,11.859 9.301,11.859 C9.691,11.469 10.325,11.469 10.715,11.859 C10.715,11.859 11.422,12.566 11.422,12.566 C11.813,12.957 11.813,13.590 11.422,13.980 C11.422,13.980 12.129,14.687 12.129,14.687 C12.520,15.078 12.520,15.711 12.129,16.102 C12.129,16.102 12.836,16.809 12.836,16.809 C13.227,17.199 13.227,17.832 12.836,18.223 zM7.887,11.859 L5.058,14.687 L5.765,15.395 L8.594,12.566 L7.887,11.859 zM10.008,12.566 L6.472,16.102 L7.180,16.809 L10.715,13.273 L10.008,12.566 zM10.715,14.687 L7.887,17.516 L8.594,18.223 L11.422,15.395 L10.715,14.687 zM11.422,16.809 L9.301,18.930 L10.008,19.637 L12.129,17.516 L11.422,16.809 z"  />
  </symbol>
  <symbol id="icon_Template"  viewBox="0 0 24 24">
    <path id="temp" d="M5.000,20.000 L5.000,4.000 L19.999,4.000 L19.999,20.000 L5.000,20.000 zM19.000,5.000 L6.000,5.000 L6.000,19.000 L19.000,19.000 L19.000,5.000 zM12.000,7.000 L7.000,7.000 L7.000,6.000 L12.000,6.000 L12.000,7.000 zM12.000,9.000 L7.000,9.000 L7.000,8.000 L12.000,8.000 L12.000,9.000 zM12.000,11.000 L7.000,11.000 L7.000,10.000 L12.000,10.000 L12.000,11.000 zM18.000,14.000 L7.000,14.000 L7.000,13.000 L18.000,13.000 L18.000,14.000 zM18.000,16.000 L7.000,16.000 L7.000,15.000 L18.000,15.000 L18.000,16.000 zM13.000,18.000 L7.000,18.000 L7.000,17.000 L13.000,17.000 L13.000,18.000 zM14.000,6.000 L18.000,6.000 L18.000,11.000 L14.000,11.000 L14.000,6.000 zM15.000,10.000 L17.000,10.000 L17.000,7.000 L15.000,7.000 L15.000,10.000 z"  />
  </symbol>
  <symbol id="icon_TimeZone"  viewBox="0 0 24 24">
    <path id="ic_timezone" d="M16.500,22.000 C13.462,22.000 11.000,19.538 11.000,16.500 C11.000,13.462 13.462,11.000 16.500,11.000 C19.538,11.000 22.000,13.462 22.000,16.500 C22.000,19.538 19.538,22.000 16.500,22.000 zM16.500,12.014 C14.021,12.014 12.015,14.021 12.015,16.500 C12.015,18.979 14.021,20.985 16.500,20.985 C18.979,20.985 20.985,18.979 20.985,16.500 C20.985,14.021 18.979,12.014 16.500,12.014 zM16.000,13.000 L17.000,13.000 L17.000,16.000 L19.000,16.000 L19.000,17.000 L16.000,17.000 L16.000,13.000 zM17.781,9.129 C17.600,8.189 17.241,7.315 16.745,6.535 C16.146,6.881 15.456,7.182 14.680,7.415 C14.795,7.973 14.869,8.566 14.922,9.173 C14.583,9.246 14.261,9.361 13.941,9.477 C13.898,8.846 13.829,8.234 13.720,7.663 C12.874,7.847 11.957,7.953 11.000,7.983 C11.000,7.983 11.000,10.000 11.000,10.000 C11.000,10.000 12.824,10.000 12.824,10.000 C12.323,10.284 11.855,10.613 11.435,11.000 C11.435,11.000 11.000,11.000 11.000,11.000 C11.000,11.000 11.000,11.435 11.000,11.435 C10.613,11.855 10.284,12.323 10.000,12.824 C10.000,12.824 10.000,11.000 10.000,11.000 C10.000,11.000 7.022,11.000 7.022,11.000 C7.047,11.825 7.141,12.607 7.280,13.336 C7.280,13.336 7.280,13.336 7.280,13.336 C7.694,13.246 8.127,13.178 8.570,13.123 C8.597,13.120 8.625,13.118 8.652,13.115 C9.054,13.067 9.469,13.041 9.891,13.025 C9.716,13.356 9.566,13.697 9.442,14.055 C9.220,14.069 8.993,14.078 8.777,14.100 C8.744,14.104 8.710,14.106 8.678,14.110 C8.273,14.155 7.881,14.214 7.507,14.291 C7.872,15.616 8.422,16.671 9.081,17.307 C9.142,17.863 9.256,18.398 9.431,18.910 C7.207,18.626 5.268,17.479 3.924,15.820 C3.915,15.828 3.903,15.835 3.893,15.843 C3.787,15.711 3.695,15.568 3.597,15.429 C3.560,15.377 3.522,15.326 3.485,15.273 C3.440,15.206 3.389,15.145 3.345,15.077 C3.351,15.072 3.359,15.067 3.365,15.062 C2.604,13.874 2.112,12.496 2.024,11.000 C2.024,11.000 2.000,11.000 2.000,11.000 L2.000,10.000 C2.000,10.000 2.024,10.000 2.024,10.000 C2.112,8.504 2.604,7.126 3.365,5.938 C3.359,5.933 3.351,5.928 3.345,5.923 C3.389,5.855 3.441,5.793 3.486,5.726 C3.522,5.674 3.559,5.624 3.596,5.572 C3.694,5.433 3.786,5.289 3.893,5.157 C3.903,5.165 3.915,5.172 3.924,5.180 C5.382,3.380 7.537,2.169 10.000,2.025 C10.000,2.025 10.000,2.000 10.000,2.000 L11.000,2.000 C11.000,2.000 11.000,2.025 11.000,2.025 C13.463,2.169 15.618,3.380 17.076,5.180 C17.085,5.172 17.097,5.165 17.107,5.157 C17.213,5.289 17.305,5.432 17.403,5.571 C17.440,5.623 17.478,5.674 17.515,5.727 C17.560,5.794 17.611,5.855 17.655,5.923 C17.649,5.928 17.641,5.933 17.635,5.938 C18.297,6.972 18.738,8.155 18.903,9.429 C18.538,9.305 18.169,9.196 17.781,9.129 zM7.914,17.449 C7.345,16.692 6.879,15.689 6.548,14.527 C6.224,14.621 5.920,14.727 5.634,14.843 C5.620,14.849 5.608,14.855 5.594,14.861 C5.316,14.975 5.054,15.099 4.812,15.231 C5.631,16.214 6.688,16.992 7.914,17.449 zM4.255,14.465 C4.255,14.465 4.255,14.465 4.255,14.465 C4.537,14.302 4.839,14.151 5.163,14.011 C5.196,13.997 5.229,13.982 5.262,13.967 C5.598,13.828 5.946,13.697 6.320,13.585 C6.153,12.775 6.045,11.909 6.016,11.000 C6.016,11.000 3.102,11.000 3.102,11.000 C3.188,12.275 3.609,13.449 4.255,14.465 zM4.255,6.535 C3.609,7.551 3.188,8.725 3.102,10.000 C3.102,10.000 6.016,10.000 6.016,10.000 C6.045,9.091 6.153,8.225 6.320,7.415 C5.544,7.182 4.854,6.881 4.255,6.535 zM4.812,5.769 C5.312,6.042 5.892,6.282 6.548,6.473 C6.879,5.311 7.345,4.308 7.914,3.551 C6.688,4.008 5.631,4.786 4.812,5.769 zM10.000,3.108 C8.932,3.438 8.032,4.806 7.507,6.709 C8.277,6.866 9.120,6.956 10.000,6.984 C10.000,6.984 10.000,3.108 10.000,3.108 zM10.000,7.983 C9.043,7.953 8.126,7.848 7.280,7.663 C7.141,8.393 7.047,9.175 7.022,10.000 C7.022,10.000 10.000,10.000 10.000,10.000 C10.000,10.000 10.000,7.983 10.000,7.983 zM11.000,3.108 C11.000,3.108 11.000,6.984 11.000,6.984 C11.880,6.956 12.723,6.866 13.493,6.709 C12.968,4.806 12.068,3.438 11.000,3.108 zM13.086,3.551 C13.655,4.308 14.121,5.311 14.452,6.473 C15.108,6.282 15.688,6.042 16.188,5.769 C15.369,4.786 14.312,4.008 13.086,3.551 z"  />
  </symbol>
  <symbol id="icon_TrackStatus"  viewBox="0 0 24 24">
    <path id="Rounded-Rectangl" d="M19.000,21.000 C19.000,21.000 5.000,21.000 5.000,21.000 C3.895,21.000 3.000,20.105 3.000,19.000 C3.000,19.000 3.000,5.000 3.000,5.000 C3.000,3.895 3.895,3.000 5.000,3.000 C5.000,3.000 19.000,3.000 19.000,3.000 C20.105,3.000 21.000,3.895 21.000,5.000 C21.000,5.000 21.000,19.000 21.000,19.000 C21.000,20.105 20.105,21.000 19.000,21.000 zM4.000,19.000 C4.000,19.542 4.427,20.000 5.000,20.000 C5.000,20.000 19.000,20.000 19.000,20.000 C19.448,20.000 20.000,19.542 20.000,19.000 C20.000,19.000 20.000,12.000 20.000,12.000 L17.000,9.000 L14.000,14.000 L11.000,11.000 L8.000,15.000 L6.000,13.000 L4.000,16.000 C4.000,16.000 4.000,19.000 4.000,19.000 zM19.000,4.000 C19.000,4.000 5.000,4.000 5.000,4.000 C4.458,4.000 4.000,4.520 4.000,5.000 C4.000,5.000 4.000,14.000 4.000,14.000 L6.000,11.000 L8.000,13.000 L11.000,9.000 L14.000,12.000 L17.000,7.000 L20.000,10.000 C20.000,10.000 20.000,5.000 20.000,5.000 C20.000,4.489 19.636,4.000 19.000,4.000 z"  />
  </symbol>
  <symbol id="icon_TrashCan"  viewBox="0 0 24 24">
    <path id="Shape-4" d="M18.000,6.000 L18.000,19.000 C18.000,19.000 17.635,20.000 17.031,20.000 C14.781,20.000 8.219,20.000 5.969,20.000 C5.365,20.000 5.000,19.000 5.000,19.000 L5.000,6.000 L4.000,6.000 L4.000,5.000 C4.000,5.000 8.000,5.000 8.000,5.000 C8.595,5.000 9.000,4.601 9.000,4.000 C9.000,4.000 14.000,4.000 14.000,4.000 C14.000,4.601 14.405,5.000 15.000,5.000 C15.000,5.000 19.000,5.000 19.000,5.000 L19.000,6.000 L18.000,6.000 zM6.000,6.000 L6.000,19.000 L17.000,19.000 L17.000,6.000 L6.000,6.000 zM14.500,17.000 C14.224,17.000 14.000,16.776 14.000,16.500 C14.000,16.500 14.000,9.500 14.000,9.500 C14.000,9.224 14.224,9.000 14.500,9.000 C14.776,9.000 15.000,9.224 15.000,9.500 C15.000,9.500 15.000,16.500 15.000,16.500 C15.000,16.776 14.776,17.000 14.500,17.000 zM12.500,17.000 C12.224,17.000 12.000,16.776 12.000,16.500 C12.000,16.500 12.000,9.500 12.000,9.500 C12.000,9.224 12.224,9.000 12.500,9.000 C12.776,9.000 13.000,9.224 13.000,9.500 C13.000,9.500 13.000,16.500 13.000,16.500 C13.000,16.776 12.776,17.000 12.500,17.000 zM10.500,17.000 C10.224,17.000 10.000,16.776 10.000,16.500 C10.000,16.500 10.000,9.500 10.000,9.500 C10.000,9.224 10.224,9.000 10.500,9.000 C10.776,9.000 11.000,9.224 11.000,9.500 C11.000,9.500 11.000,16.500 11.000,16.500 C11.000,16.776 10.776,17.000 10.500,17.000 zM8.500,17.000 C8.224,17.000 8.000,16.776 8.000,16.500 C8.000,16.500 8.000,9.500 8.000,9.500 C8.000,9.224 8.224,9.000 8.500,9.000 C8.776,9.000 9.000,9.224 9.000,9.500 C9.000,9.500 9.000,16.500 9.000,16.500 C9.000,16.776 8.776,17.000 8.500,17.000 z"  />
  </symbol>
  <symbol id="icon_User"  viewBox="0 0 24 24">
    <path id="Shape-3" d="M1.000,22.000 C1.000,17.578 3.726,16.399 7.597,15.690 C7.805,15.965 8.028,16.219 8.268,16.454 C4.629,17.110 2.000,18.409 2.000,21.000 C8.420,21.000 16.318,21.000 22.000,21.000 C22.000,18.439 19.403,17.087 15.772,16.433 C15.999,16.209 16.211,15.967 16.409,15.707 C20.266,16.421 23.000,17.586 23.000,22.000 C16.750,22.000 8.062,22.000 1.000,22.000 zM12.000,16.000 C7.989,16.000 7.000,10.314 7.000,7.000 C7.000,4.342 9.239,2.000 12.000,2.000 C14.761,2.000 17.000,4.344 17.000,7.000 C17.000,10.314 16.043,16.000 12.000,16.000 zM12.000,3.000 C9.791,3.000 8.000,5.003 8.000,7.000 C8.000,9.840 8.791,15.000 12.000,15.000 C15.234,15.000 16.000,9.840 16.000,7.000 C16.000,4.973 14.209,3.000 12.000,3.000 z"  />
  </symbol>
  <symbol id="icon_ViewGrid"  viewBox="0 0 24 24">
    <path id="Rectangle-7" d="M16.000,20.000 L16.000,12.000 L21.000,12.000 L21.000,20.000 L16.000,20.000 zM20.000,13.000 L17.000,13.000 L17.000,19.000 L20.000,19.000 L20.000,13.000 zM16.000,3.000 L21.000,3.000 L21.000,11.000 L16.000,11.000 L16.000,3.000 zM17.000,10.000 L20.000,10.000 L20.000,4.000 L17.000,4.000 L17.000,10.000 zM10.000,12.000 L15.000,12.000 L15.000,20.000 L10.000,20.000 L10.000,12.000 zM11.000,19.000 L14.000,19.000 L14.000,13.000 L11.000,13.000 L11.000,19.000 zM10.000,3.000 L15.000,3.000 L15.000,11.000 L10.000,11.000 L10.000,3.000 zM11.000,10.000 L14.000,10.000 L14.000,4.000 L11.000,4.000 L11.000,10.000 zM4.000,12.000 L9.000,12.000 L9.000,20.000 L4.000,20.000 L4.000,12.000 zM5.000,19.000 L8.000,19.000 L8.000,13.000 L5.000,13.000 L5.000,19.000 zM4.000,3.000 L9.000,3.000 L9.000,11.000 L4.000,11.000 L4.000,3.000 zM5.000,10.000 L8.000,10.000 L8.000,4.000 L5.000,4.000 L5.000,10.000 z"  />
  </symbol>
  <symbol id="icon_ViewList"  viewBox="0 0 24 24">
    <path id="Rectangle-7" d="M3.000,20.000 L3.000,15.000 L21.000,15.000 L21.000,20.000 L3.000,20.000 zM20.000,16.000 L4.000,16.000 L4.000,19.000 L20.000,19.000 L20.000,16.000 zM3.000,9.000 L21.000,9.000 L21.000,14.000 L3.000,14.000 L3.000,9.000 zM4.000,13.000 L20.000,13.000 L20.000,10.000 L4.000,10.000 L4.000,13.000 zM3.000,3.000 L21.000,3.000 L21.000,8.000 L3.000,8.000 L3.000,3.000 zM4.000,7.000 L20.000,7.000 L20.000,4.000 L4.000,4.000 L4.000,7.000 z"  />
  </symbol>
  <symbol id="icon_Wishlist"  viewBox="0 0 24 24">
    <path id="Shape-1" d="M11.998,20.000 C6.083,14.248 4.421,11.469 4.060,9.300 C3.620,6.647 5.597,4.000 8.677,4.000 C9.997,4.000 11.197,4.507 11.998,5.353 C12.800,4.507 13.999,4.000 15.319,4.000 C18.386,4.000 20.379,6.634 19.936,9.300 C19.584,11.422 18.031,14.134 11.998,20.000 zM8.387,4.993 C7.034,4.993 5.894,5.710 5.337,6.910 C3.909,9.984 7.126,13.858 12.000,19.000 C16.893,13.839 20.083,9.977 18.659,6.910 C18.102,5.710 16.962,4.993 15.609,4.993 C13.430,4.993 12.503,6.147 12.000,7.000 C11.528,6.199 10.677,4.993 8.387,4.993 z"  />
  </symbol>
  <symbol id="icon_WishlistMov"  viewBox="0 0 24 24">
    <path id="Shape-1" d="M13.000,13.000 L15.985,15.985 L15.278,16.692 L11.293,12.707 L11.500,12.500 L11.293,12.293 L15.353,8.233 L16.060,8.940 L13.000,12.000 L20.000,12.000 L20.000,13.000 L13.000,13.000 zM19.413,11.000 C19.413,11.000 18.334,11.000 18.334,11.000 C19.051,9.489 19.228,8.134 18.659,6.910 C18.102,5.710 16.962,4.993 15.609,4.993 C13.430,4.993 12.503,6.147 12.000,7.000 C11.528,6.199 10.677,4.993 8.387,4.993 C7.034,4.993 5.894,5.710 5.337,6.910 C3.909,9.984 7.124,13.867 11.998,19.008 C12.552,18.424 13.081,17.858 13.588,17.305 C13.588,17.305 14.090,17.908 14.090,17.908 C13.460,18.558 12.766,19.253 11.998,20.000 C6.083,14.248 4.421,11.469 4.060,9.300 C3.620,6.647 5.597,4.000 8.677,4.000 C9.997,4.000 11.197,4.507 11.998,5.353 C12.800,4.507 13.999,4.000 15.319,4.000 C18.386,4.000 20.379,6.634 19.936,9.300 C19.850,9.819 19.690,10.374 19.413,11.000 z"  />
  </symbol>
    </defs>
</svg>